<?xml version="1.0" standalone="no"?>
<!DOCTYPE svg PUBLIC "-//W3C//DTD SVG 1.1//EN" "http://www.w3.org/Graphics/SVG/1.1/DTD/svg11.dtd" >
<svg xmlns="http://www.w3.org/2000/svg">
<metadata>
Created by FontPrep 20130207 at Tue Sep 27 15:30:38 2016
 By Tina Muller
Copyright (c) 2016 by Radomir Tinkov. All rights reserved.
</metadata>
<defs>
<font id="c210ee31a20eb9be4c1c874262ae184d" horiz-adv-x='1024' >
  <font-face 
    font-family="Gilroy-Bold"
    font-weight="700"
    font-stretch="normal"
    units-per-em="2048"
    panose-1="0 0 8 0 0 0 0 0 0 0"
    ascent="1638"
    descent="-410"
    x-height="1024"
    cap-height="1434"
    bbox="-850 -539 2240 1997"
    underline-thickness="102"
    underline-position="-102"
    unicode-range="U+0020-FB02"
  />
<missing-glyph horiz-adv-x="1024" 
d="M682 -37h-340v-67h143l-143 -97v-67h340v67h-209l143 97h66v67zM614 174v-96h-204v96h204zM682 242h-340v-232h340v232zM682 596h-205v-115h70v47h67v-96h-204v164h-68v-231h340v231zM682 846h-68v-135h-272v-70h340v205zM682 969h-340v-68h135v-76h-135v-67h205v143h135
v68zM477 1167v-73h-67v73h67zM547 1237h-205v-213h340v70h-135v143zM682 1501h-338v-67h133v-76h-135v-68h340v68h-135v76h135v67zM840 1638v-2048h-650v2048h650z" />
    <glyph glyph-name="fi" unicode="fi" horiz-adv-x="1140" 
d="M1020 1024v-1024h-264v770h-301v-770h-265v770h-147v254h147v10q0 428 482 428q109 0 239 -28v-242q-137 16 -243 16t-160 -38q-53 -38 -53 -136v-10h565z" />
    <glyph glyph-name="fl" unicode="fl" horiz-adv-x="1140" 
d="M672 1462q133 0 348 -43v-1419h-264v1229q-29 2 -84 2q-217 0 -217 -197v-10h170v-254h-170v-770h-265v770h-147v254h147v10q1 428 482 428z" />
    <glyph glyph-name="f_f" unicode="ff" horiz-adv-x="1239" 
d="M1022 1055v-31h217v-254h-217v-770h-264v770h-303v-770h-265v770h-147v254h147v10q0 217 121 330t361 98v-254q-217 16 -217 -174v-10h303v31q0 217 122 329t359 99v-254q-217 16 -217 -174z" />
    <glyph glyph-name="f_f_i" unicode="ffi" horiz-adv-x="1708" 
d="M1587 1024v-1024h-264v770h-301v-770h-264v770h-303v-770h-265v770h-147v254h147v10q0 217 121 330t361 98v-254q-217 16 -217 -174v-10h303v31q0 428 481 428q111 0 242 -29v-242q-141 16 -246 16t-159 -37q-54 -38 -54 -136v-31h565z" />
    <glyph glyph-name="f_f_l" unicode="ffl" horiz-adv-x="1708" 
d="M1239 1483q137 0 348 -43v-1440h-264v1249q-29 2 -84 2q-217 0 -217 -196v-31h172v-254h-172v-770h-264v770h-303v-770h-265v770h-147v254h147v10q0 217 121 330t361 98v-254q-217 16 -217 -174v-10h303v31q0 428 481 428z" />
    <glyph glyph-name=".notdef" horiz-adv-x="1024" 
d="M682 -37h-340v-67h143l-143 -97v-67h340v67h-209l143 97h66v67zM614 174v-96h-204v96h204zM682 242h-340v-232h340v232zM682 596h-205v-115h70v47h67v-96h-204v164h-68v-231h340v231zM682 846h-68v-135h-272v-70h340v205zM682 969h-340v-68h135v-76h-135v-67h205v143h135
v68zM477 1167v-73h-67v73h67zM547 1237h-205v-213h340v70h-135v143zM682 1501h-338v-67h133v-76h-135v-68h340v68h-135v76h135v67zM840 1638v-2048h-650v2048h650z" />
    <glyph glyph-name=".null" horiz-adv-x="0" 
 />
    <glyph glyph-name="nonmarkingreturn" horiz-adv-x="681" 
 />
    <glyph glyph-name="space" unicode=" " horiz-adv-x="512" 
 />
    <glyph glyph-name="exclam" unicode="!" horiz-adv-x="548" 
d="M274 -27q-72 -1 -122 51t-52 124q0 72 52 122q52 52 122 52q72 0 123 -52t51 -123q0 -72 -50 -123q-52 -51 -124 -51zM115 1434h317v-410l-53 -543h-209l-55 543v410z" />
    <glyph glyph-name="quotedbl" unicode="&#x22;" horiz-adv-x="774" 
d="M471 963l-35 471h250l-35 -471h-180zM123 963l-35 471h250l-35 -471h-180z" />
    <glyph glyph-name="numbersign" unicode="#" horiz-adv-x="1261" 
d="M721 625l31 184h-209l-31 -184h209zM1182 809h-221l-31 -184h223l-33 -199h-225l-53 -324h-209l53 324h-209l-53 -324h-207l53 324h-223l33 199h225l31 184h-227l32 201h228l53 321h207l-54 -321h209l54 321h209l-54 -321h221z" />
    <glyph glyph-name="dollar" unicode="$" horiz-adv-x="1124" 
d="M659 256q131 29 132 143q0 51 -32 86t-100 66v-295zM395 1048q0 -48 29 -82t98 -69v287q-61 -12 -94 -50t-33 -86zM1073 412q0 -190 -115 -302t-299 -135v-180h-137v178q-172 13 -295 97t-176 227l244 141q66 -164 227 -186v354h-2l-121 49q-45 19 -105 59
q-182 120 -179 333q-1 181 117 289t290 124v178h137v-182q279 -33 394 -289l-238 -139q-49 123 -156 150v-342q190 -76 256 -121q158 -113 158 -303z" />
    <glyph glyph-name="percent" unicode="%" horiz-adv-x="1566" 
d="M1130 182q55 0 92 39q36 39 36 93t-36 93q-36 37 -92 37t-91 -38t-35 -92q0 -56 36 -94t90 -38zM1130 -25q-147 1 -245 99t-99 239q0 141 98 239t246 99q148 0 246 -98q98 -97 98 -239t-98 -240q-99 -98 -246 -99zM436 993q55 0 92 38t37 93q0 54 -37 92t-92 38t-91 -38
q-36 -36 -36 -92t36 -93q36 -38 91 -38zM238 217l933 1038l125 -69l-936 -1041zM438 786q-146 0 -246 98t-100 240t99 240t247 98t246 -97t98 -241t-98 -240q-98 -98 -246 -98z" />
    <glyph glyph-name="ampersand" unicode="&#x26;" horiz-adv-x="1378" 
d="M608 231q110 0 195 52l-309 335q-4 4 -5 7q-113 -70 -112 -199q0 -88 60 -142q61 -54 171 -53zM593 -29q-220 0 -361 116q-140 116 -140 310q0 127 62 236t178 176q-70 111 -70 240q0 182 127 298t322 115q153 0 275 -79t181 -228l-241 -139q-59 172 -211 172
q-74 0 -122 -43t-48 -105q-1 -62 27 -108q28 -47 90 -113l307 -336q45 96 69 238l238 -135q-39 -166 -125 -301l184 -203l-225 -129l-131 141q-166 -123 -386 -123z" />
    <glyph glyph-name="quotesingle" unicode="'" horiz-adv-x="425" 
d="M123 963l-35 471h250l-35 -471h-180z" />
    <glyph glyph-name="parenleft" unicode="(" horiz-adv-x="628" 
d="M109 717q0 471 225 921h264q-225 -452 -225 -922t225 -921h-264q-225 451 -225 922z" />
    <glyph glyph-name="parenright" unicode=")" horiz-adv-x="628" 
d="M256 717q0 471 -225 921h264q225 -452 225 -922t-225 -921h-264q225 451 225 922z" />
    <glyph glyph-name="asterisk" unicode="*" horiz-adv-x="815" 
d="M709 1247v-164l-187 15l113 -144l-139 -86l-88 172l-89 -172l-137 86l111 144l-184 -15v164l184 -16l-111 145l137 86l89 -172l88 172l139 -86l-113 -145z" />
    <glyph glyph-name="plus" unicode="+" horiz-adv-x="1136" 
d="M1030 842v-248h-338v-338h-248v338h-335v248h335v336h248v-336h338z" />
    <glyph glyph-name="comma" unicode="," horiz-adv-x="569" 
d="M469 283l-154 -570h-215l82 570h287z" />
    <glyph glyph-name="hyphen" unicode="-" horiz-adv-x="1034" 
d="M133 492v253h768v-253h-768z" />
    <glyph glyph-name="period" unicode="." horiz-adv-x="548" 
d="M274 -27q-72 -1 -122 51t-52 124q0 72 52 122q52 52 122 52q72 0 123 -52t51 -123q0 -72 -50 -123q-52 -51 -124 -51z" />
    <glyph glyph-name="slash" unicode="/" horiz-adv-x="1071" 
d="M184 -205h-116l819 1843h117z" />
    <glyph glyph-name="zero" unicode="0" horiz-adv-x="1290" 
d="M645 248q143 0 218 121t75 349t-75 349t-218 121t-217 -121t-74 -350t74 -349t217 -120zM646 -29q-269 0 -422 204t-152 542q0 337 152 541t422 204q269 0 421 -204t152 -542t-152 -541q-152 -204 -421 -204z" />
    <glyph glyph-name="one" unicode="1" horiz-adv-x="792" 
d="M645 1434v-1434h-283v1135l-270 -76l-69 241l376 134h246z" />
    <glyph glyph-name="two" unicode="2" horiz-adv-x="1087" 
d="M55 0v211l490 504q164 172 164 286q-1 83 -53 135t-134 52q-162 0 -239 -168l-238 139q68 147 195 225t278 78q195 0 334 -122t139 -336t-235 -451l-281 -281h539v-272h-959z" />
    <glyph glyph-name="three" unicode="3" horiz-adv-x="1116" 
d="M539 -29q-168 0 -300 77t-192 226l242 140q53 -166 250 -166q109 0 169 52t60 141t-60 143t-169 53h-62l-108 164l282 368h-561v265h901v-234l-268 -348q145 -43 236 -151t92 -259q-1 -221 -149 -346t-363 -125z" />
    <glyph glyph-name="four" unicode="4" horiz-adv-x="1187" 
d="M1159 506v-262h-153v-244h-285v244h-678v262l477 928h303l-475 -928h373v340h285v-340h153z" />
    <glyph glyph-name="five" unicode="5" horiz-adv-x="1122" 
d="M573 911q207 0 349 -124t141 -345t-149 -346t-342 -125t-328 78q-133 78 -193 230l242 141q53 -172 258 -172q109 0 169 52t60 141t-59 143t-162 53h-434l57 797h813v-265h-551l-18 -258h147z" />
    <glyph glyph-name="six" unicode="6" horiz-adv-x="1132" 
d="M565 238q102 0 171 63t69 169t-69 168q-69 64 -171 64t-170 -62q-67 -62 -67 -168t67 -171q68 -63 170 -63zM1085 469q0 -217 -145 -357q-144 -140 -374 -140t-374 138q-144 140 -145 361q0 164 84 289l447 674h323l-317 -465q223 -7 362 -145t139 -355z" />
    <glyph glyph-name="seven" unicode="7" horiz-adv-x="1003" 
d="M27 1434h925v-240l-485 -1194h-299l471 1163h-612v271z" />
    <glyph glyph-name="eight" unicode="8" horiz-adv-x="1163" 
d="M582 238q104 0 169 52t65 145t-65 146q-65 52 -169 52t-169 -52q-65 -51 -65 -145t65 -146t169 -52zM582 1196q-82 0 -133 -45t-51 -123t50 -124q52 -46 134 -46t133 46t51 124t-51 123t-133 45zM1096 399q0 -199 -138 -313t-378 -115q-238 0 -375 115t-137 313
q0 227 196 346q-150 109 -150 303t135 304q134 110 333 110q200 0 332 -110t132 -306q0 -195 -149 -301q199 -119 199 -346z" />
    <glyph glyph-name="nine" unicode="9" horiz-adv-x="1132" 
d="M328 964q0 -105 68 -169q69 -63 171 -63t170 62q68 64 68 170t-68 170q-68 62 -170 62t-171 -63q-68 -64 -68 -169zM1085 965q0 -166 -86 -291h2l-446 -674h-324l320 467q-223 4 -364 142q-140 139 -140 357t144 357q145 139 375 139t374 -138t145 -359z" />
    <glyph glyph-name="colon" unicode=":" horiz-adv-x="548" 
d="M274 -27q-72 -1 -122 51t-52 124q0 72 52 122q52 52 122 52q72 0 123 -52t51 -123q0 -72 -50 -123q-52 -51 -124 -51zM274 707q-72 0 -122 51t-52 123q0 72 52 123t122 51q72 0 123 -51t51 -123t-50 -123q-52 -51 -124 -51z" />
    <glyph glyph-name="semicolon" unicode=";" horiz-adv-x="571" 
d="M469 283l-154 -570h-215l82 570h287zM297 707q-72 0 -123 51t-51 123t51 123t123 51t123 -51t51 -123t-51 -123t-123 -51z" />
    <glyph glyph-name="less" unicode="&#x3c;" horiz-adv-x="1081" 
d="M989 1225v-275l-596 -233l596 -232v-274l-897 389v236z" />
    <glyph glyph-name="equal" unicode="=" horiz-adv-x="1075" 
d="M92 381v248h891v-248h-891zM92 805v248h891v-248h-891z" />
    <glyph glyph-name="greater" unicode="&#x3e;" horiz-adv-x="1081" 
d="M92 1225l897 -389v-236l-897 -389v274l596 232l-596 233v275z" />
    <glyph glyph-name="question" unicode="?" horiz-adv-x="1132" 
d="M541 -27q-72 -1 -123 51t-51 124t51 122q51 52 123 52t123 -52t51 -123q0 -72 -51 -123t-123 -51zM399 481q0 90 55 172q54 82 117 132t118 118q54 67 54 137t-49 109t-137 39q-172 0 -244 -182l-241 139q61 153 195 235t310 82t313 -107q136 -108 136 -282t-122 -300
q-50 -52 -100 -98q-122 -112 -122 -194h-283z" />
    <glyph glyph-name="at" unicode="@" horiz-adv-x="1595" 
d="M785 373q58 0 95 39q36 39 36 101t-36 100t-94 38t-96 -38q-37 -38 -37 -100t37 -101t95 -39zM813 1253q217 0 385 -105t250 -263q82 -157 82 -351t-92 -310t-234 -115q-207 0 -270 161q-78 -94 -206 -94t-213 95t-85 241t85 240q85 96 206 96t197 -76v53h219v-473
q0 -150 118 -149q88 0 143 88q54 88 54 262q0 266 -184 448q-184 183 -461 183t-471 -194t-193 -482q0 -288 201 -477q201 -190 506 -191q193 0 332 51v-73q-137 -47 -332 -47q-336 0 -559 210t-223 525t214 531t531 216z" />
    <glyph glyph-name="A" unicode="A" horiz-adv-x="1368" 
d="M487 522h394l-197 586zM1055 0l-86 258h-572l-86 -258h-305l502 1434h350l504 -1434h-307z" />
    <glyph glyph-name="B" unicode="B" horiz-adv-x="1239" 
d="M741 264q72 0 119 48t47 121t-47 121t-119 48h-325v-338h325zM698 1169h-282v-315h282q66 0 110 45t44 113t-43 112t-111 45zM741 0h-608v1434h565q184 0 310 -114t126 -291t-135 -286q188 -109 189 -327q0 -182 -129 -299t-318 -117z" />
    <glyph glyph-name="C" unicode="C" horiz-adv-x="1486" 
d="M813 -29q-325 0 -535 215q-210 216 -210 532t210.5 530t534.5 214q195 0 359.5 -91t257.5 -247l-244 -141q-53 96 -151.5 150.5t-221.5 54.5q-209 0 -337 -131t-128 -339t128 -339t337 -131q123 0 222.5 54t150.5 149l244 -142q-92 -156 -256 -247t-361 -91z" />
    <glyph glyph-name="D" unicode="D" horiz-adv-x="1460" 
d="M702 270q186 0 303 124t117 322.5t-116.5 322.5t-303.5 124h-286v-893h286zM702 1434q295 0 493 -207t198 -510t-198 -510t-493 -207h-569v1434h569z" />
    <glyph glyph-name="E" unicode="E" horiz-adv-x="1085" 
d="M416 270h604v-270h-887v1434h877v-271h-594v-305h542v-266h-542v-322z" />
    <glyph glyph-name="F" unicode="F" horiz-adv-x="1062" 
d="M989 1163h-573v-340h557v-270h-557v-553h-283v1434h856v-271z" />
    <glyph glyph-name="G" unicode="G" horiz-adv-x="1607" 
d="M1540 770v-111q0 -307 -196 -497t-518 -190.5t-540 215.5q-218 217 -218 529t216 529t535 217q201 0 367 -91t258 -243l-242 -139q-51 88 -154.5 143.5t-230.5 55.5q-205 0 -337 -134t-132 -338t134 -336t356 -132q164 0 271.5 72.5t145.5 199.5h-434v250h719z" />
    <glyph glyph-name="H" unicode="H" horiz-adv-x="1361" 
d="M948 1434h281v-1434h-281v594h-532v-594h-283v1434h283v-570h532v570z" />
    <glyph glyph-name="I" unicode="I" horiz-adv-x="548" 
d="M133 1434h283v-1434h-283v1434z" />
    <glyph glyph-name="J" unicode="J" horiz-adv-x="1165" 
d="M541 -29q-338 0 -473 273l243 139q68 -135 230 -135q113 0 168 53t55 145v988h280v-988q0 -225 -141 -350t-362 -125z" />
    <glyph glyph-name="K" unicode="K" horiz-adv-x="1259" 
d="M416 0h-283v1434h283v-633l491 633h326l-531 -697l551 -737h-325l-512 672v-672z" />
    <glyph glyph-name="L" unicode="L" horiz-adv-x="989" 
d="M416 270h547v-270h-830v1434h283v-1164z" />
    <glyph glyph-name="M" unicode="M" horiz-adv-x="1669" 
d="M1536 1434v-1434h-281v930l-403 -666h-33l-403 664v-928h-283v1434h291l412 -678l409 678h291z" />
    <glyph glyph-name="N" unicode="N" horiz-adv-x="1378" 
d="M963 1434h282v-1434h-215l-614 877v-877h-283v1434h215l615 -875v875z" />
    <glyph glyph-name="O" unicode="O" horiz-adv-x="1622" 
d="M811 248q197 0 330 132t133 337t-133 338t-330 133t-330 -133t-133 -338t133 -337t330 -132zM811 -29q-311 0 -527 216t-216 529.5t216 529.5t527 216t528 -216t217 -529.5t-217 -529.5t-528 -216z" />
    <glyph glyph-name="P" unicode="P" horiz-adv-x="1208" 
d="M668 735q90 1 149 63t59 155t-58 155q-60 62 -150 61h-252v-434h252zM668 1434q207 0 348 -140t141 -342q0 -203 -141 -342t-348 -139h-252v-471h-283v1434h535z" />
    <glyph glyph-name="Q" unicode="Q" horiz-adv-x="1632" 
d="M811 248q80 0 160 26l-236 246l201 178l252 -262q86 123 86 281q0 205 -133 338t-330 133t-330 -133t-133 -337t133 -337t330 -133zM1556 734q0 -296 -176 -501l148 -153l-201 -178l-156 161q-166 -92 -360 -92q-309 0 -526 216q-217 215 -217 529t217 530t526 216
t527 -216t218 -512z" />
    <glyph glyph-name="R" unicode="R" horiz-adv-x="1257" 
d="M416 1169v-424h291q80 0 137 62.5t57 151t-57.5 149.5t-136.5 61h-291zM416 498v-498h-283v1434h574q199 0 338 -139.5t139 -336.5q0 -133 -76 -246.5t-201 -170.5l318 -541h-305l-289 498h-215z" />
    <glyph glyph-name="S" unicode="S" horiz-adv-x="1193" 
d="M632 -29q-222 0 -367.5 95.5t-205.5 259.5l242 141q84 -219 330 -219q119 0 174 43t55 113.5t-67.5 112.5t-202.5 81t-201.5 67.5t-133.5 76.5q-136 98 -136 293.5t138 311t322.5 115.5t316.5 -85t206 -236l-238 -137q-86 184 -274 184q-88 0 -138.5 -40t-50.5 -106
t56.5 -107.5t169.5 -76t146.5 -46t92 -35t90.5 -43.5q98 -64 142.5 -141t44.5 -190q0 -199 -144.5 -315.5t-366.5 -116.5z" />
    <glyph glyph-name="T" unicode="T" horiz-adv-x="1105" 
d="M1081 1434v-271h-387v-1163h-282v1163h-385v271h1054z" />
    <glyph glyph-name="U" unicode="U" horiz-adv-x="1337" 
d="M669 -29q-241 0 -394.5 135.5t-153.5 362.5v965h280v-942q0 -113 64.5 -178.5t202 -65.5t202 65.5t64.5 178.5v942h283v-965q0 -227 -153.5 -362.5t-394.5 -135.5z" />
    <glyph glyph-name="V" unicode="V" horiz-adv-x="1325" 
d="M487 0l-481 1434h307l351 -1102l348 1102h309l-483 -1434h-351z" />
    <glyph glyph-name="W" unicode="W" horiz-adv-x="2045" 
d="M432 0l-401 1434h297l274 -1063l299 1063h242l301 -1063l274 1063h297l-401 -1434h-322l-270 946l-268 -946h-322z" />
    <glyph glyph-name="X" unicode="X" horiz-adv-x="1249" 
d="M1225 0h-322l-278 467l-279 -467h-319l438 735l-416 699h320l256 -430l256 430h319l-416 -697z" />
    <glyph glyph-name="Y" unicode="Y" horiz-adv-x="1271" 
d="M776 0h-280v559l-490 875h320l311 -598l311 598h320l-492 -875v-559z" />
    <glyph glyph-name="Z" unicode="Z" horiz-adv-x="1095" 
d="M1042 270v-270h-968v225l596 938h-582v271h942v-224l-596 -940h608z" />
    <glyph glyph-name="bracketleft" unicode="[" horiz-adv-x="634" 
d="M594 1384h-221v-1335h221v-254h-485v1843h485v-254z" />
    <glyph glyph-name="backslash" unicode="\" horiz-adv-x="1071" 
d="M887 -205l-819 1843h116l820 -1843h-117z" />
    <glyph glyph-name="bracketright" unicode="]" horiz-adv-x="634" 
d="M526 1638v-1843h-485v254h221v1335h-221v254h485z" />
    <glyph glyph-name="asciicircum" unicode="^" horiz-adv-x="1146" 
d="M674 1434l391 -676h-285l-207 372l-206 -372h-285l391 676h201z" />
    <glyph glyph-name="underscore" unicode="_" horiz-adv-x="1064" 
d="M68 -350v254h931v-254h-931z" />
    <glyph glyph-name="grave" unicode="`" horiz-adv-x="563" 
d="M522 1153h-254l-227 281h317z" />
    <glyph glyph-name="a" unicode="a" 
d="M614.5 223q122.5 0 203.5 81t81 208t-81 208t-203.5 81t-202.5 -81t-80 -208t80 -208t202.5 -81zM899 1024h264v-1024h-264v121q-119 -150 -329 -150t-356 157t-146 384t146 384t356 157t329 -150v121z" />
    <glyph glyph-name="b" unicode="b" 
d="M668 223q124 0 204 81t80 208t-81 208t-203 81t-203 -81q-80 -81 -80 -208t80 -208t203 -81zM713 1053q211 0 357 -157t146 -384t-146 -384t-357 -157t-328 150v-121h-264v1434h264v-531q117 150 328 150z" />
    <glyph glyph-name="c" unicode="c" horiz-adv-x="1097" 
d="M608 -29q-231 0 -385.5 156t-154.5 385t154.5 385t385.5 156q150 0 273 -72t186 -193l-227 -133q-31 63 -93.5 100.5t-140.5 37.5q-119 0 -196.5 -79t-77.5 -201t77.5 -201t196.5 -79q80 0 142.5 36t93.5 100l229 -131q-68 -121 -190.5 -194t-272.5 -73z" />
    <glyph glyph-name="d" unicode="d" 
d="M614 223q123 0 203 81t80 208t-80 208t-203 81q-124 0 -204 -81t-80 -208t80 -208t204 -81zM897 1434h264v-1434h-264v121q-117 -150 -328 -150t-357 157t-146 384t146 384t357 157t328 -150v531z" />
    <glyph glyph-name="e" unicode="e" horiz-adv-x="1189" 
d="M600 815q-98 0 -167.5 -54.5t-92.5 -152.5h522q-23 104 -93.5 155.5t-168.5 51.5zM629 -29q-254 0 -407.5 154t-153.5 386t151.5 387t382.5 155t377.5 -156t146.5 -385q0 -51 -10 -109h-772q53 -193 289 -192q152 0 229 102l213 -123q-152 -219 -446 -219z" />
    <glyph glyph-name="f" unicode="f" horiz-adv-x="671" 
d="M455 1034v-10h217v-254h-217v-770h-265v770h-147v254h147v10q0 217 121 330t361 98v-254q-217 16 -217 -174z" />
    <glyph glyph-name="g" unicode="g" 
d="M618.5 248q124.5 0 205.5 79t81 201t-81 200.5t-205.5 78.5t-205.5 -79t-81 -201t81 -200.5t205.5 -78.5zM905 1024h258v-975q0 -238 -156.5 -362.5t-377.5 -124.5q-166 0 -292 63.5t-194 186.5l226 129q78 -143 268 -144q125 0 196.5 65.5t71.5 186.5v111
q-117 -156 -331 -156t-360 152.5t-146 370.5t147 372t361 154t329 -156v127z" />
    <glyph glyph-name="h" unicode="h" horiz-adv-x="1181" 
d="M690 1053q168 0 278 -113t109 -311v-629h-264v596q0 102 -55 156q-54 54 -152 55t-160 -63t-61 -191v-553h-264v1434h264v-525q96 144 305 144z" />
    <glyph glyph-name="i" unicode="i" horiz-adv-x="505" 
d="M121 0v1024h264v-1024h-264zM253 1147q-67 0 -115 48t-48 114q0 67 48 115t115 48t115 -48q48 -50 48 -116t-48 -113q-48 -48 -115 -48z" />
    <glyph glyph-name="j" unicode="j" horiz-adv-x="540" 
d="M156 -20v1044h264v-1044q0 -224 -110 -328t-337 -90v254q94 -6 139 32q44 40 44 132zM125 1309q0 67 48 115t115 48q66 0 114 -48q48 -50 48 -116t-47 -113q-48 -48 -115 -48t-115 48t-48 114z" />
    <glyph glyph-name="k" unicode="k" horiz-adv-x="1075" 
d="M385 0h-264v1434h264v-861l352 451h316l-412 -506l424 -518h-307l-373 465v-465z" />
    <glyph glyph-name="l" unicode="l" horiz-adv-x="505" 
d="M121 0v1495h264v-1495h-264z" />
    <glyph glyph-name="m" unicode="m" horiz-adv-x="1744" 
d="M1240 1053q190 0 294 -115q106 -115 106 -307v-631h-264v612q0 92 -45 144t-131 51q-86 0 -136 -59t-50 -173v-575h-264v612q0 92 -45 144t-130 51q-85 0 -137 -59t-53 -173v-575h-264v1024h264v-109q93 137 283 137t280 -147q102 148 292 148z" />
    <glyph glyph-name="n" unicode="n" horiz-adv-x="1181" 
d="M690 1053q168 0 277.5 -113t109.5 -311v-629h-264v596q0 102 -55.5 156.5t-152.5 54.5t-158.5 -63.5t-61.5 -190.5v-553h-264v1024h264v-115q96 144 305 144z" />
    <glyph glyph-name="o" unicode="o" horiz-adv-x="1216" 
d="M608 229q119 0 199 80t80 203t-80 203t-199 80t-197.5 -80t-78.5 -203t78.5 -203t197.5 -80zM608.5 -29q-227.5 0 -384 157t-156.5 384t156.5 384t384 157t385 -157t157.5 -384t-157.5 -384t-385 -157z" />
    <glyph glyph-name="p" unicode="p" 
d="M668 223q124 0 204 81t80 208t-81 208t-203 81t-203 -81q-80 -81 -80 -208t80 -208t203 -81zM713 1053q211 0 357 -157t146 -384t-146 -384t-357 -157t-328 150v-531h-264v1434h264v-121q117 150 328 150z" />
    <glyph glyph-name="q" unicode="q" 
d="M614 223q123 0 203 81t80 208t-80 208t-203 81q-124 0 -204 -81t-80 -208t80 -208t204 -81zM897 1024h264v-1434h-264v531q-117 -150 -328 -150t-357 157t-146 384t146 384t357 157t328 -150v121z" />
    <glyph glyph-name="r" unicode="r" horiz-adv-x="729" 
d="M696 1044v-294q-121 14 -216 -49.5t-95 -211.5v-489h-264v1024h264v-176q37 98 122 147t189 49z" />
    <glyph glyph-name="s" unicode="s" horiz-adv-x="952" 
d="M365 732q0 -40 54 -65.5t132 -45t155.5 -49t132 -99.5t54.5 -174q0 -158 -118 -243t-294 -85q-315 0 -430 244l230 129q45 -133 193 -133t149 88q0 41 -54.5 66.5t-132.5 46t-155.5 51.5t-132 97.5t-54.5 166.5q0 152 112 239q110 87 256 87q286 0 410 -217l-225 -123
q-49 104 -164 104q-51 0 -84.5 -22.5t-33.5 -62.5z" />
    <glyph glyph-name="t" unicode="t" horiz-adv-x="788" 
d="M707 770h-232v-426q1 -99 105 -105q52 -3 127 1v-240q-272 -31 -384 51t-112 293v426h-178v254h178v207l264 80v-287h232v-254z" />
    <glyph glyph-name="u" unicode="u" horiz-adv-x="1181" 
d="M797 1024h264v-1024h-264v115q-96 -143 -305 -144q-168 0 -278 113t-110 311v629h265v-596q0 -102 55 -156.5t152 -54.5t159 63.5t62 190.5v553z" />
    <glyph glyph-name="v" unicode="v" horiz-adv-x="1091" 
d="M795 1024h290l-389 -1024h-301l-389 1024h291l248 -717z" />
    <glyph glyph-name="w" unicode="w" horiz-adv-x="1576" 
d="M1274 1024h280l-325 -1024h-252l-189 621l-188 -621h-252l-325 1024h280l174 -629l187 629h249l187 -631z" />
    <glyph glyph-name="x" unicode="x" horiz-adv-x="1075" 
d="M1065 0h-305l-221 311l-224 -311h-305l375 522l-358 502h305l207 -289l206 289h304l-359 -500z" />
    <glyph glyph-name="y" unicode="y" horiz-adv-x="1075" 
d="M788 1024h283l-373 -1024q-80 -221 -212 -320.5t-328 -89.5v246q106 -2 168.5 45t99.5 152l-420 991h289l266 -688z" />
    <glyph glyph-name="z" unicode="z" horiz-adv-x="970" 
d="M897 248v-248h-809v176l432 600h-411v248h768v-176l-435 -600h455z" />
    <glyph glyph-name="braceleft" unicode="{" horiz-adv-x="735" 
d="M264 162v303q0 85 -39 109t-123 18v256q84 -6 123 18t39 109v303q0 412 430 381v-254q-86 9 -126 -17t-40 -110v-303q0 -186 -122 -254q123 -70 122 -256v-303q0 -84 40 -111t126 -16v-254q-430 -31 -430 381z" />
    <glyph glyph-name="bar" unicode="|" horiz-adv-x="530" 
d="M133 -410v1885h264v-1885h-264z" />
    <glyph glyph-name="braceright" unicode="}" horiz-adv-x="735" 
d="M207 162v303q0 186 123 256q-123 68 -123 254v303q0 84 -40 111t-126 16v254q430 31 430 -381v-303q0 -84 39 -109t123 -18v-256q-84 6 -123 -19t-39 -108v-303q0 -412 -430 -381v254q86 -9 126 17t40 110z" />
    <glyph glyph-name="asciitilde" unicode="~" horiz-adv-x="1226" 
d="M920 907l215 -104q-53 -203 -195 -262t-317 30q-153 73 -203 67q-52 -5 -72 -33t-41 -83l-215 103q52 201 194 261t318 -28q109 -51 164 -63t90 13t62 99z" />
    <glyph glyph-name="exclamdown" unicode="&#xa1;" horiz-adv-x="548" 
d="M432 -410h-317v410l55 543h209l53 -543v-410zM274 1051q72 1 123 -51t51 -124t-50 -122q-52 -52 -124 -52t-122 52t-52 123q0 72 51 123t123 51z" />
    <glyph glyph-name="cent" unicode="&#xa2;" horiz-adv-x="1097" 
d="M332 717q0 -160 125 -238l168 518h-19q-118 -1 -196 -79t-78 -201zM608 176q-70 0 -125 14l-61 -190h-119l72 225q-141 63 -224 195t-83 297q0 229 154 385q155 156 386 155q55 0 99 -8l59 185h119l-70 -217q170 -68 252 -224l-227 -133q-35 72 -107 107l-168 -527
q12 -2 41 -2q80 0 143 36q62 36 93 99l229 -131q-69 -122 -191 -194t-272 -72z" />
    <glyph glyph-name="sterling" unicode="&#xa3;" horiz-adv-x="1189" 
d="M498 272h669v-272h-1099v272h149v289h-125v248h125v205q0 217 134 333q133 115 303 115t286 -79t172 -220l-244 -139q-53 164 -194 164q-76 0 -126 -47t-50 -137v-195h415v-248h-415v-289z" />
    <glyph glyph-name="currency" unicode="&#xa4;" horiz-adv-x="1112" 
d="M556 537q79 0 129 51t50 130t-50 129t-129 50t-128 -50t-49 -130t49 -130t128 -50zM995 715q0 -152 -92 -266l144 -144l-78 -78l-146 146q-111 -86 -265 -86t-269 84l-144 -144l-77 78l141 144q-92 115 -92 267t92 271l-141 141l77 78l144 -143q119 86 267 86t267 -86
l146 143l78 -78l-144 -143q92 -118 92 -270z" />
    <glyph glyph-name="yen" unicode="&#xa5;" horiz-adv-x="1230" 
d="M1087 741v-163h-301l-10 -19v-74h311v-166h-311v-319h-280v319h-351v166h351v74l-11 19h-340v163h248l-387 693h320l311 -598l311 598h320l-389 -693h208z" />
    <glyph glyph-name="brokenbar" unicode="&#xa6;" horiz-adv-x="530" 
d="M133 -410v758h264v-758h-264zM133 717v758h264v-758h-264z" />
    <glyph glyph-name="section" unicode="&#xa7;" horiz-adv-x="1110" 
d="M365 680q0 -96 165 -160q10 -4 82 -30t111 -41q47 41 47 101t-45 96t-137 73q-150 55 -174 65q-49 -36 -49 -104zM981 115q0 -164 -117 -254t-295 -90q-344 0 -452 258l235 135q56 -160 210 -160t155 111q1 38 -25 59q-26 22 -44 34t-51 26q-31 14 -55 24t-64 26
q-196 76 -287 161t-91 233t127 244q-61 80 -61 202q0 158 114 248t263 90t259 -66t165 -192l-217 -119q-66 143 -193 144q-57 0 -92 -28t-35 -72q0 -45 38 -79t77 -52t133 -54q155 -62 255 -141q101 -79 101 -229t-121 -255q68 -84 68 -204z" />
    <glyph glyph-name="dieresis" unicode="&#xa8;" horiz-adv-x="747" 
d="M569 1124q-57 0 -98 40t-41 98t41 98q41 41 98 41t97 -41t41 -98q0 -57 -40 -98q-41 -40 -98 -40zM180 1124q-57 0 -98 40t-41 98t41 98q41 41 98 41q58 0 98 -41t40 -98t-40 -98q-41 -40 -98 -40z" />
    <glyph glyph-name="copyright" unicode="&#xa9;" horiz-adv-x="1615" 
d="M815 315q-168 0 -287 119t-118 283q0 165 118 283t287 118q107 0 199 -52t143 -144l-196 -115q-43 84 -152 84q-78 0 -125 -51t-47 -123t47 -123t125 -51q106 0 152 86l198 -117q-51 -90 -145 -144t-199 -53zM143 716q0 -278 195 -474t470 -197q275 0 470 197
q195 198 195 476t-195 474t-470 197q-275 0 -470 -197q-195 -198 -195 -476zM809 -25q-307 -1 -524 217t-217 525t217 524t524 217t524 -217t217 -524t-217 -525t-524 -217z" />
    <glyph glyph-name="guillemotleft" unicode="&#xab;" horiz-adv-x="1116" 
d="M987 1018l-225 -385l225 -383h-244l-225 383l225 385h244zM598 1018l-225 -385l225 -383h-244l-225 383l225 385h244z" />
    <glyph glyph-name="logicalnot" unicode="&#xac;" horiz-adv-x="1126" 
d="M92 842h942v-492h-264v244h-678v248z" />
    <glyph glyph-name="registered" unicode="&#xae;" horiz-adv-x="1615" 
d="M748 897v-149h67q43 0 68 20t24 53q0 76 -92 76h-67zM1126 844q0 -147 -112 -228l155 -278h-235l-109 225h-77v-225h-220v758h306q124 0 208 -70t84 -182zM143 716q0 -278 195 -474t470 -197q275 0 470 197q195 198 195 476t-195 474t-470 197q-275 0 -470 -197
q-195 -198 -195 -476zM809 1458q307 0 524 -217t217 -524t-217 -524t-524 -217t-524 216q-217 218 -217 525t217 524t524 217z" />
    <glyph glyph-name="macron" unicode="&#xaf;" horiz-adv-x="675" 
d="M41 1155v215h594v-215h-594z" />
    <glyph glyph-name="degree" unicode="&#xb0;" horiz-adv-x="821" 
d="M412 1198q53 0 87 35t33 88q0 53 -33 88q-34 35 -87 35t-87 -35t-34 -88t34 -88t87 -35zM414 983q-148 0 -248 99q-98 100 -98 240t98 238t246 99q148 0 245 -98q99 -97 99 -239t-97 -240t-245 -99z" />
    <glyph glyph-name="plusminus" unicode="&#xb1;" horiz-adv-x="1136" 
d="M109 109v247h921v-247h-921zM692 1028h338v-248h-338v-299h-248v299h-335v248h335v299h248v-299z" />
    <glyph glyph-name="acute" unicode="&#xb4;" horiz-adv-x="563" 
d="M41 1153l164 281h317l-227 -281h-254z" />
    <glyph glyph-name="uni00B5" unicode="&#xb5;" horiz-adv-x="1263" 
d="M1143 248h74v-248h-123q-154 0 -228 102q-96 -131 -297 -131q-106 0 -184 45v-426h-264v1434h264v-594q0 -102 55 -158q54 -56 152 -55q98 -1 160 63t61 191v553h264v-711q0 -65 66 -65z" />
    <glyph glyph-name="paragraph" unicode="&#xb6;" horiz-adv-x="1370" 
d="M1276 1434v-232h-127v-1612h-248v1612h-162v-1612h-247v963q-182 0 -312 129q-129 129 -129 311q0 181 129 311t312 130h784z" />
    <glyph glyph-name="periodcentered" unicode="&#xb7;" horiz-adv-x="548" 
d="M274 537q-72 0 -122 51t-52 123q0 72 52 123t122 51q72 0 123 -51t51 -123t-50 -123q-52 -51 -124 -51z" />
    <glyph glyph-name="cedilla" unicode="&#xb8;" horiz-adv-x="532" 
d="M492 -254q0 -215 -451 -188v186q221 -14 221 41q0 41 -129 51v164h215v-94q60 -14 102 -54t42 -106z" />
    <glyph glyph-name="guillemotright" unicode="&#xbb;" horiz-adv-x="1116" 
d="M762 1018l225 -385l-225 -383h-244l225 383l-225 385h244zM373 1018l225 -385l-225 -383h-244l225 383l-225 385h244z" />
    <glyph glyph-name="onequarter" unicode="&#xbc;" horiz-adv-x="1667" 
d="M1634 332v-201h-84v-131h-209v131h-383v201l265 487h233l-252 -487h137v141h209v-141h84zM1059 1434h184l-819 -1434h-184zM444 614h-219v598l-168 -47l-51 181l246 88h192v-820z" />
    <glyph glyph-name="onehalf" unicode="&#xbd;" horiz-adv-x="1665" 
d="M1597 199v-199h-612v143l307 306q72 68 72 124q0 33 -23 53t-61 21q-84 0 -127 -104l-178 102q86 203 307 203q131 0 217 -73t86 -191t-139 -258l-133 -127h284zM1059 1434h184l-819 -1434h-184zM444 614h-219v598l-168 -47l-51 181l246 88h192v-820z" />
    <glyph glyph-name="threequarters" unicode="&#xbe;" horiz-adv-x="1832" 
d="M1800 332v-201h-84v-131h-209v131h-383v201l265 487h233l-252 -487h137v141h209v-141h84zM1225 1434h184l-819 -1434h-184zM657 862q0 -133 -84 -205t-233 -71q-238 0 -320 182l185 106q35 -96 134 -96t99 84q0 37 -28 60q-29 23 -76 22h-39l-82 119l141 172h-297v199
h564v-162l-148 -176q88 -26 136 -86t48 -148z" />
    <glyph glyph-name="questiondown" unicode="&#xbf;" horiz-adv-x="1132" 
d="M733 543q0 -139 -122 -257q-50 -48 -100 -93q-122 -110 -122 -207q0 -72 49 -111t137 -39q172 0 244 182l242 -139q-61 -153 -195 -235t-311 -82q-176 0 -312 108q-137 108 -137 281q0 174 122 300q50 52 101 98q122 112 122 194h282zM592 1051q72 1 123 -51t51 -124
t-51 -122q-51 -52 -123 -52t-123 52t-51 123q0 72 51 123t123 51z" />
    <glyph glyph-name="Agrave" unicode="&#xc0;" horiz-adv-x="1368" 
d="M487 522h394l-197 586zM1055 0l-86 258h-572l-86 -258h-305l502 1434h350l504 -1434h-307zM852 1563h-254l-227 280h317z" />
    <glyph glyph-name="Aacute" unicode="&#xc1;" horiz-adv-x="1368" 
d="M487 522h394l-197 586zM1055 0l-86 258h-572l-86 -258h-305l502 1434h350l504 -1434h-307zM1001 1843l-227 -280h-254l164 280h317z" />
    <glyph glyph-name="Acircumflex" unicode="&#xc2;" horiz-adv-x="1368" 
d="M487 522h394l-197 586zM1055 0l-86 258h-572l-86 -258h-305l502 1434h350l504 -1434h-307zM678 1679l-90 -133h-262l217 297h268l217 -297h-262z" />
    <glyph glyph-name="Atilde" unicode="&#xc3;" horiz-adv-x="1368" 
d="M487 522h394l-197 586zM1055 0l-86 258h-572l-86 -258h-305l502 1434h350l504 -1434h-307zM549 1556h-213q0 270 165 302q95 19 208 -54q59 -41 82.5 -32.5t23.5 81.5h215q0 -117 -34 -191t-88 -98q-110 -47 -251 42q-59 41 -83.5 32.5t-24.5 -82.5z" />
    <glyph glyph-name="Adieresis" unicode="&#xc4;" horiz-adv-x="1368" 
d="M487 522h394l-197 586zM1055 0l-86 258h-572l-86 -258h-305l502 1434h350l504 -1434h-307zM878.5 1534q-57.5 0 -98.5 40t-41 97.5t41 98t98.5 40.5t97.5 -40.5t40 -98t-40 -97.5t-97.5 -40zM489.5 1534q-57.5 0 -98.5 40t-41 97.5t41 98t98.5 40.5t97.5 -40.5t40 -98
t-40 -97.5t-97.5 -40z" />
    <glyph glyph-name="Aring" unicode="&#xc5;" horiz-adv-x="1368" 
d="M487 522h394l-197 586zM684 1649q-37 0 -58.5 -21.5t-21.5 -55.5t21.5 -55.5t58.5 -21.5q82 0 82 77t-82 77zM426 1574q0 103 72.5 172t186.5 69t185.5 -69t71.5 -174t-72 -173l492 -1399h-307l-86 258h-572l-86 -258h-305l490 1401q-70 70 -70 173z" />
    <glyph glyph-name="AE" unicode="&#xc6;" horiz-adv-x="1802" 
d="M922 522v504l-297 -504h297zM1196 270h541v-270h-815v258h-453l-152 -258h-317l848 1434h878v-271h-530v-305h483v-266h-483v-322z" />
    <glyph glyph-name="Ccedilla" unicode="&#xc7;" horiz-adv-x="1486" 
d="M813 248q123 0 222.5 54t150.5 149l244 -142q-78 -131 -208 -217t-290 -112v-74q59 -14 101 -54t42 -106q0 -215 -450 -188v186q221 -14 221 41q0 41 -129 51v141q-287 33 -468 241t-181 512t210.5 518t534.5 214q195 0 359.5 -91t257.5 -247l-244 -141
q-53 96 -151.5 150.5t-221.5 54.5q-209 0 -337 -131t-128 -339t128 -339t337 -131z" />
    <glyph glyph-name="Egrave" unicode="&#xc8;" horiz-adv-x="1085" 
d="M416 270h604v-270h-887v1434h877v-271h-594v-305h542v-266h-542v-322zM739 1563h-254l-227 280h317z" />
    <glyph glyph-name="Eacute" unicode="&#xc9;" horiz-adv-x="1085" 
d="M416 270h604v-270h-887v1434h877v-271h-594v-305h542v-266h-542v-322zM889 1843l-227 -280h-254l163 280h318z" />
    <glyph glyph-name="Ecircumflex" unicode="&#xca;" horiz-adv-x="1085" 
d="M416 270h604v-270h-887v1434h877v-271h-594v-305h542v-266h-542v-322zM565 1679l-90 -133h-262l217 297h268l217 -297h-262z" />
    <glyph glyph-name="Edieresis" unicode="&#xcb;" horiz-adv-x="1085" 
d="M416 270h604v-270h-887v1434h877v-271h-594v-305h542v-266h-542v-322zM766 1534q-57 0 -98 40t-41 97.5t41 98t98 40.5t97 -40.5t40 -98t-40 -97.5t-97 -40zM376.5 1534q-57.5 0 -98 40t-40.5 97.5t40.5 98t98 40.5t97.5 -40.5t40 -98t-40 -97.5t-97.5 -40z" />
    <glyph glyph-name="Igrave" unicode="&#xcc;" horiz-adv-x="548" 
d="M133 1434h283v-1434h-283v1434zM442 1563h-254l-227 280h318z" />
    <glyph glyph-name="Iacute" unicode="&#xcd;" horiz-adv-x="548" 
d="M133 1434h283v-1434h-283v1434zM111 1563l163 280h318l-227 -280h-254z" />
    <glyph glyph-name="Icircumflex" unicode="&#xce;" horiz-adv-x="548" 
d="M133 0v1434h283v-1434h-283zM268 1679l-90 -133h-262l217 297h268l217 -297h-262z" />
    <glyph glyph-name="Idieresis" unicode="&#xcf;" horiz-adv-x="548" 
d="M133 1434h283v-1434h-283v1434zM469 1534q-57 0 -98 40t-41 97.5t41 98t98 40.5t97 -40.5t40 -98t-40 -97.5t-97 -40zM80 1534q-57 0 -98 40t-41 97.5t41 98t98 40.5t97 -40.5t40 -98t-40 -97.5t-97 -40z" />
    <glyph glyph-name="Eth" unicode="&#xd0;" horiz-adv-x="1531" 
d="M774 270q186 0 303 124t117 322.5t-116.5 322.5t-303.5 124h-287v-334h326v-254h-326v-305h287zM774 1434q295 0 492.5 -207t197.5 -510t-197.5 -510t-492.5 -207h-569v575h-160v254h160v605h569z" />
    <glyph glyph-name="Ntilde" unicode="&#xd1;" horiz-adv-x="1378" 
d="M963 1434h282v-1434h-215l-614 877v-877h-283v1434h215l615 -875v875zM326 1556q0 270 164 302q96 19 208 -54q59 -41 83 -32.5t24 81.5h215q0 -117 -34 -191t-88 -98q-109 -47 -251 42q-59 41 -83.5 32.5t-24.5 -82.5h-213z" />
    <glyph glyph-name="Ograve" unicode="&#xd2;" horiz-adv-x="1622" 
d="M811 248q197 0 330 132t133 337t-133 338t-330 133t-330 -133t-133 -338t133 -337t330 -132zM811 -29q-311 0 -527 216t-216 529.5t216 529.5t527 216t528 -216t217 -529.5t-217 -529.5t-528 -216zM979 1579h-254l-227 281h317z" />
    <glyph glyph-name="Oacute" unicode="&#xd3;" horiz-adv-x="1622" 
d="M811 248q197 0 330 132t133 337t-133 338t-330 133t-330 -133t-133 -338t133 -337t330 -132zM811 -29q-311 0 -527 216t-216 529.5t216 529.5t527 216t528 -216t217 -529.5t-217 -529.5t-528 -216zM647 1579l164 281h317l-227 -281h-254z" />
    <glyph glyph-name="Ocircumflex" unicode="&#xd4;" horiz-adv-x="1622" 
d="M811 248q197 0 330 132t133 337t-133 338t-330 133t-330 -133t-133 -338t133 -337t330 -132zM811 1462q311 0 528 -216t217 -529.5t-217 -529.5t-528 -216t-527 216t-216 529.5t216 529.5t527 216zM805 1696l-90 -133h-262l217 297h268l217 -297h-262z" />
    <glyph glyph-name="Otilde" unicode="&#xd5;" horiz-adv-x="1622" 
d="M811 248q197 0 330 132t133 337t-133 338t-330 133t-330 -133t-133 -338t133 -337t330 -132zM811 -29q-311 0 -527 216t-216 529.5t216 529.5t527 216t528 -216t217 -529.5t-217 -529.5t-528 -216zM463 1573q0 271 165 302q94 18 208 -54q59 -41 82.5 -33t23.5 82h215
q0 -117 -33.5 -191.5t-87.5 -98.5q-109 -48 -252 42q-59 41 -83.5 33t-24.5 -82h-213z" />
    <glyph glyph-name="Odieresis" unicode="&#xd6;" horiz-adv-x="1622" 
d="M811 248q197 0 330 132t133 337t-133 338t-330 133t-330 -133t-133 -338t133 -337t330 -132zM811 -29q-311 0 -527 216t-216 529.5t216 529.5t527 216t528 -216t217 -529.5t-217 -529.5t-528 -216zM1005.5 1550q-57.5 0 -98.5 40t-41 97.5t41 98.5t98.5 41t97.5 -41
t40 -98.5t-40 -97.5t-97.5 -40zM616.5 1550q-57.5 0 -98.5 40t-41 97.5t41 98.5t98.5 41t97.5 -41t40 -98.5t-40 -97.5t-97.5 -40z" />
    <glyph glyph-name="multiply" unicode="&#xd7;" horiz-adv-x="1048" 
d="M946 965l-248 -248l248 -248l-176 -172l-246 246l-245 -246l-177 172l248 248l-248 248l177 172l245 -246l246 246z" />
    <glyph glyph-name="Oslash" unicode="&#xd8;" horiz-adv-x="1634" 
d="M823 248q197 0 330 132t133 324.5t-104 319.5l-594 -717q106 -59 235 -59zM360 728.5q0 -193.5 107 -318.5l594 716q-111 61 -238 62q-197 0 -330 -133t-133 -326.5zM1569 714q0 -310 -217 -526.5t-529 -216.5q-227 0 -411 123l-97 -117l-139 82l113 136
q-209 219 -209 527t216 524t527 216q225 0 414 -123l96 117l140 -80l-113 -137q209 -215 209 -525z" />
    <glyph glyph-name="Ugrave" unicode="&#xd9;" horiz-adv-x="1337" 
d="M669 -29q-241 0 -394.5 135.5t-153.5 362.5v965h280v-942q0 -113 64.5 -178.5t202 -65.5t202 65.5t64.5 178.5v942h283v-965q0 -227 -153.5 -362.5t-394.5 -135.5zM836 1563h-254l-228 280h318z" />
    <glyph glyph-name="Uacute" unicode="&#xda;" horiz-adv-x="1337" 
d="M669 -29q-241 0 -394.5 135.5t-153.5 362.5v965h280v-942q0 -113 64.5 -178.5t202 -65.5t202 65.5t64.5 178.5v942h283v-965q0 -227 -153.5 -362.5t-394.5 -135.5zM504 1563l164 280h317l-227 -280h-254z" />
    <glyph glyph-name="Ucircumflex" unicode="&#xdb;" horiz-adv-x="1337" 
d="M934 1434h283v-965q0 -227 -154 -363q-155 -136 -395 -135.5t-393.5 136t-153.5 362.5v965h280v-942q0 -113 64.5 -178.5t202 -65.5t202 65.5t64.5 178.5v942zM662 1679l-91 -133h-262l217 297h269l217 -297h-262z" />
    <glyph glyph-name="Udieresis" unicode="&#xdc;" horiz-adv-x="1337" 
d="M669 -29q-241 0 -394.5 135.5t-153.5 362.5v965h280v-942q0 -113 64.5 -178.5t202 -65.5t202 65.5t64.5 178.5v942h283v-965q0 -227 -153.5 -362.5t-394.5 -135.5zM862.5 1534q-57.5 0 -98.5 40t-41 97.5t41 98t98.5 40.5t97 -40.5t39.5 -98t-39.5 -97.5t-97 -40z
M473 1534q-57 0 -98 40t-41 97.5t41 98t98 40.5t97 -40.5t40 -98t-40 -97.5t-97 -40z" />
    <glyph glyph-name="Yacute" unicode="&#xdd;" horiz-adv-x="1271" 
d="M776 0h-280v559l-490 875h320l311 -598l311 598h320l-492 -875v-559zM952 1843l-227 -280h-254l164 280h317z" />
    <glyph glyph-name="Thorn" unicode="&#xde;" horiz-adv-x="1208" 
d="M676 500q84 0 142 62t58 154t-58 155q-58 62 -142 63h-260v-434h260zM676 1198q201 0 341 -140t140 -341t-140 -341t-341 -140h-260v-236h-283v1434h283v-236h260z" />
    <glyph glyph-name="germandbls" unicode="&#xdf;" horiz-adv-x="1099" 
d="M544 1221q-68 0 -113 -45q-46 -45 -46 -134v-1042h-264v1040q0 193 119 308q119 114 309 114q191 0 297 -97t106 -235q0 -74 -30 -134t-62 -104q-31 -44 -31 -80q0 -62 119 -210q45 -55 82 -139t37 -166q0 -158 -116 -246t-380 -63v233q231 -23 232 121q1 57 -61 142
t-122 170q-60 84 -60 142t64 146t64 146t-38 95q-38 38 -106 38z" />
    <glyph glyph-name="agrave" unicode="&#xe0;" 
d="M614.5 223q122.5 0 203.5 81t81 208t-81 208t-203.5 81t-202.5 -81t-80 -208t80 -208t202.5 -81zM899 1024h264v-1024h-264v121q-119 -150 -329 -150t-356 157t-146 384t146 384t356 157t329 -150v121zM801 1153h-254l-228 281h318z" />
    <glyph glyph-name="aacute" unicode="&#xe1;" 
d="M614.5 223q122.5 0 203.5 81t81 208t-81 208t-203.5 81t-202.5 -81t-80 -208t80 -208t202.5 -81zM899 1024h264v-1024h-264v121q-119 -150 -329 -150t-356 157t-146 384t146 384t356 157t329 -150v121zM950 1434l-227 -281h-254l164 281h317z" />
    <glyph glyph-name="acircumflex" unicode="&#xe2;" 
d="M614.5 223q122.5 0 203.5 81t81 208t-81 208t-203.5 81t-202.5 -81t-80 -208t80 -208t202.5 -81zM899 1024h264v-1024h-264v121q-119 -150 -329 -150t-356 157t-146 384t146 384t356 157t329 -150v121zM627 1270l-90 -133h-263l218 297h268l217 -297h-262z" />
    <glyph glyph-name="atilde" unicode="&#xe3;" 
d="M614.5 223q122.5 0 203.5 81t81 208t-81 208t-203.5 81t-202.5 -81t-80 -208t80 -208t202.5 -81zM899 1024h264v-1024h-264v121q-119 -150 -329 -150t-356 157t-146 384t146 384t356 157t329 -150v121zM498 1147h-213q1 271 165 302q98 18 207 -54q59 -41 83 -33t24 82
h215q0 -117 -34 -191.5t-88 -98.5q-108 -48 -251 42q-59 41 -83.5 33t-24.5 -82z" />
    <glyph glyph-name="adieresis" unicode="&#xe4;" 
d="M614.5 223q122.5 0 203.5 81t81 208t-81 208t-203.5 81t-202.5 -81t-80 -208t80 -208t202.5 -81zM899 1024h264v-1024h-264v121q-119 -150 -329 -150t-356 157t-146 384t146 384t356 157t329 -150v121zM827.5 1124q-57.5 0 -98.5 40t-41 97.5t41 98.5t98.5 41t97.5 -41
t40 -98.5t-40 -97.5t-97.5 -40zM438.5 1124q-57.5 0 -98.5 40t-41 97.5t41 98.5t98.5 41t97 -41t39.5 -98.5t-39.5 -97.5t-97 -40z" />
    <glyph glyph-name="aring" unicode="&#xe5;" 
d="M614.5 223q122.5 0 203.5 81t81 208t-81 208t-203.5 81t-202.5 -81t-80 -208t80 -208t202.5 -81zM899 1024h264v-1024h-264v121q-119 -150 -329 -150t-356 157t-146 384t146 384t356 157t329 -150v121zM633 1423q-37 0 -58.5 -21.5t-21.5 -55t21.5 -55t58.5 -21.5
q82 0 82 76.5t-82 76.5zM634 1104q-114 0 -186.5 69.5t-72.5 174t72.5 173t186.5 68.5t185.5 -68.5t71.5 -173.5t-71.5 -174t-185.5 -69z" />
    <glyph glyph-name="ae" unicode="&#xe6;" horiz-adv-x="2023" 
d="M614 223q123 0 204 81t81 208t-81 208t-204 81q-122 0 -202 -81t-80 -208t80 -208t202 -81zM1696 610q-45 205 -258 205q-98 0 -169 -53q-70 -54 -95 -152h522zM1464 211q154 0 232 102l213 -123q-152 -219 -414 -219q-217 0 -348 158v-129h-248v121q-119 -150 -329 -150
t-356 157t-146 384t146 384t356 157t329 -150v121h248v-127q129 156 345 156t342 -154t126 -387q0 -51 -10 -109h-772q28 -96 104 -144t182 -48z" />
    <glyph glyph-name="ccedilla" unicode="&#xe7;" horiz-adv-x="1097" 
d="M870 -254q0 -215 -450 -188v186q221 -14 221 41q0 41 -129 51v144q-197 33 -320.5 180t-123.5 364t154.5 373t385.5 156q150 0 273 -72t186 -193l-227 -133q-31 63 -93.5 100.5t-140.5 37.5q-119 0 -196.5 -79t-77.5 -201t77.5 -201t196.5 -79q80 0 142.5 36t93.5 100
l229 -131q-53 -96 -143 -163t-201 -91v-78q59 -14 101 -54t42 -106z" />
    <glyph glyph-name="egrave" unicode="&#xe8;" horiz-adv-x="1189" 
d="M600 815q-98 0 -167.5 -54.5t-92.5 -152.5h522q-23 104 -93.5 155.5t-168.5 51.5zM629 -29q-254 0 -407.5 154t-153.5 386t151.5 387t382.5 155t377.5 -156t146.5 -385q0 -51 -10 -109h-772q53 -193 289 -192q152 0 229 102l213 -123q-152 -219 -446 -219zM764 1161h-254
l-227 281h317z" />
    <glyph glyph-name="eacute" unicode="&#xe9;" horiz-adv-x="1189" 
d="M600 815q-98 0 -167.5 -54.5t-92.5 -152.5h522q-23 104 -93.5 155.5t-168.5 51.5zM629 -29q-254 0 -407.5 154t-153.5 386t151.5 387t382.5 155t377.5 -156t146.5 -385q0 -51 -10 -109h-772q53 -193 289 -192q152 0 229 102l213 -123q-152 -219 -446 -219zM913 1442
l-227 -281h-254l164 281h317z" />
    <glyph glyph-name="ecircumflex" unicode="&#xea;" horiz-adv-x="1189" 
d="M600 815q-98 0 -167.5 -54.5t-92.5 -152.5h522q-23 104 -93.5 155.5t-168.5 51.5zM629 -29q-254 0 -407.5 154t-153.5 386t151.5 387t382.5 155t377.5 -156t146.5 -385q0 -51 -10 -109h-772q53 -193 289 -192q152 0 229 102l213 -123q-152 -219 -446 -219zM590 1278
l-90 -133h-262l217 297h268l217 -297h-262z" />
    <glyph glyph-name="edieresis" unicode="&#xeb;" horiz-adv-x="1189" 
d="M600 815q-98 0 -167.5 -54.5t-92.5 -152.5h522q-23 104 -93.5 155.5t-168.5 51.5zM629 -29q-254 0 -407.5 154t-153.5 386t151.5 387t382.5 155t377.5 -156t146.5 -385q0 -51 -10 -109h-772q53 -193 289 -192q152 0 229 102l213 -123q-152 -219 -446 -219zM790.5 1133
q-57.5 0 -98.5 39.5t-41 97t41 98.5t98.5 41t97.5 -41t40 -98.5t-40 -97t-97.5 -39.5zM401.5 1133q-57.5 0 -98.5 39.5t-41 97t41 98.5t98.5 41t97.5 -41t40 -98.5t-40 -97t-97.5 -39.5z" />
    <glyph glyph-name="igrave" unicode="&#xec;" horiz-adv-x="505" 
d="M385 0h-264v1024h264v-1024zM377 1137h-254l-137 297h303z" />
    <glyph glyph-name="iacute" unicode="&#xed;" horiz-adv-x="505" 
d="M121 0v1024h264v-1024h-264zM123 1137l86 297h303l-135 -297h-254z" />
    <glyph glyph-name="icircumflex" unicode="&#xee;" horiz-adv-x="505" 
d="M121 0v1024h264v-1024h-264zM254 1247l-66 -110h-262l193 297h268l191 -297h-261z" />
    <glyph glyph-name="idieresis" unicode="&#xef;" horiz-adv-x="505" 
d="M121 0v1024h264v-1024h-264zM426 1133q-57 0 -97 39.5t-40 97t40 98.5t97 41t98 -41t41 -98.5t-41 -97t-98 -39.5zM77.5 1133q-57.5 0 -97 39.5t-39.5 97t39.5 98.5t97 41t98.5 -41t41 -98.5t-41 -97t-98.5 -39.5z" />
    <glyph glyph-name="eth" unicode="&#xf0;" horiz-adv-x="1169" 
d="M585 223q111 0 183 67t72 165t-43 159q-76 96 -200 96t-195 -65q-70 -65 -70 -177t70 -178t183 -67zM1104 471q0 -225 -152 -360t-366 -135t-367 134q-151 136 -151 350t146 350t351 122l-119 164l-260 -129v184l162 80l-147 203h305l67 -91l242 119v-184l-141 -70
l336 -450q94 -129 94 -287z" />
    <glyph glyph-name="ntilde" unicode="&#xf1;" horiz-adv-x="1181" 
d="M690 1053q168 0 277.5 -113t109.5 -311v-629h-264v596q0 102 -55.5 156.5t-152.5 54.5t-158.5 -63.5t-61.5 -190.5v-553h-264v1024h264v-115q96 144 305 144zM475 1163h-213q0 271 165 303q97 19 208 -55q59 -41 82.5 -33t23.5 82h215q0 -118 -34 -192t-88 -98
q-110 -47 -250 42q-59 41 -84 33t-25 -82z" />
    <glyph glyph-name="ograve" unicode="&#xf2;" horiz-adv-x="1216" 
d="M608 229q119 0 199 80t80 203t-80 203t-199 80t-197.5 -80t-78.5 -203t78.5 -203t197.5 -80zM608.5 -29q-227.5 0 -384 157t-156.5 384t156.5 384t384 157t385 -157t157.5 -384t-157.5 -384t-385 -157zM776 1169h-254l-227 281h317z" />
    <glyph glyph-name="oacute" unicode="&#xf3;" horiz-adv-x="1216" 
d="M608 229q119 0 199 80t80 203t-80 203t-199 80t-197.5 -80t-78.5 -203t78.5 -203t197.5 -80zM608.5 -29q-227.5 0 -384 157t-156.5 384t156.5 384t384 157t385 -157t157.5 -384t-157.5 -384t-385 -157zM444 1169l164 281h318l-228 -281h-254z" />
    <glyph glyph-name="ocircumflex" unicode="&#xf4;" horiz-adv-x="1216" 
d="M608 229q119 0 199 80t80 203t-80 203t-199 80t-197.5 -80t-78.5 -203t78.5 -203t197.5 -80zM608.5 1053q227.5 0 385 -157t157.5 -384t-157.5 -384t-385 -157t-384 157t-156.5 384t156.5 384t384 157zM602 1286l-90 -133h-262l217 297h268l217 -297h-262z" />
    <glyph glyph-name="otilde" unicode="&#xf5;" horiz-adv-x="1216" 
d="M608 229q119 0 199 80t80 203t-80 203t-199 80t-197.5 -80t-78.5 -203t78.5 -203t197.5 -80zM608.5 -29q-227.5 0 -384 157t-156.5 384t156.5 384t384 157t385 -157t157.5 -384t-157.5 -384t-385 -157zM260 1163q0 271 165 303q97 19 208 -55q59 -41 82.5 -33t23.5 82
h215q0 -118 -34 -192t-88 -98q-111 -48 -250 42q-59 41 -84 33t-25 -82h-213z" />
    <glyph glyph-name="odieresis" unicode="&#xf6;" horiz-adv-x="1216" 
d="M608 229q119 0 199 80t80 203t-80 203t-199 80t-197.5 -80t-78.5 -203t78.5 -203t197.5 -80zM608.5 -29q-227.5 0 -384 157t-156.5 384t156.5 384t384 157t385 -157t157.5 -384t-157.5 -384t-385 -157zM802.5 1141q-57.5 0 -98 40t-40.5 97t40.5 98t98 41t97.5 -41
t40 -98t-40 -97t-97.5 -40zM413.5 1141q-57.5 0 -98.5 40t-41 97t41 98t98.5 41t97.5 -41t40 -98t-40 -97t-97.5 -40z" />
    <glyph glyph-name="divide" unicode="&#xf7;" horiz-adv-x="1157" 
d="M580 485q72 0 118 -48t47 -119q1 -70 -47 -118t-119 -48t-119 49t-48 119t48 117q48 48 120 48zM92 594v248h973v-248h-973zM745 1116q1 -72 -47 -120t-119 -48t-119 48t-48 119t48 119t120 48t118 -47t47 -119z" />
    <glyph glyph-name="oslash" unicode="&#xf8;" horiz-adv-x="1216" 
d="M608 229q119 0 199 80t80 190.5t-51 180.5l-357 -420q57 -31 129 -31zM332 525.5q0 -109.5 51 -183.5l356 422q-59 31 -131 31q-119 0 -197.5 -80t-78.5 -189.5zM1151 506q0 -221 -157.5 -378t-385.5 -157q-166 0 -297 86l-65 -75l-113 65l80 94q-145 152 -145 375
t156.5 380t383.5 157q162 0 299 -88l66 77l112 -65l-79 -94q145 -156 145 -377z" />
    <glyph glyph-name="ugrave" unicode="&#xf9;" horiz-adv-x="1181" 
d="M797 1024h264v-1024h-264v115q-96 -143 -305 -144q-168 0 -278 113t-110 311v629h265v-596q0 -102 55 -156.5t152 -54.5t159 63.5t62 190.5v553zM750 1153h-254l-228 281h318z" />
    <glyph glyph-name="uacute" unicode="&#xfa;" horiz-adv-x="1181" 
d="M797 1024h264v-1024h-264v115q-96 -143 -305 -144q-168 0 -278 113t-110 311v629h265v-596q0 -102 55 -156.5t152 -54.5t159 63.5t62 190.5v553zM899 1434l-227 -281h-254l164 281h317z" />
    <glyph glyph-name="ucircumflex" unicode="&#xfb;" horiz-adv-x="1181" 
d="M797 1024h264v-1024h-264v115q-96 -143 -305 -144q-168 0 -278 113t-110 311v629h265v-596q0 -102 55 -156.5t152 -54.5t159 63.5t62 190.5v553zM575 1270l-90 -133h-262l217 297h269l217 -297h-262z" />
    <glyph glyph-name="udieresis" unicode="&#xfc;" horiz-adv-x="1181" 
d="M797 1024h264v-1024h-264v115q-96 -143 -305 -144q-168 0 -278 113t-110 311v629h265v-596q0 -102 55 -156.5t152 -54.5t159 63.5t62 190.5v553zM776.5 1124q-57.5 0 -98.5 40t-41 97.5t41 98.5t98.5 41t97 -41t39.5 -98.5t-39.5 -97.5t-97 -40zM387 1124q-57 0 -98 40
t-41 97.5t41 98.5t98 41t97 -41t40 -98.5t-40 -97.5t-97 -40z" />
    <glyph glyph-name="yacute" unicode="&#xfd;" horiz-adv-x="1075" 
d="M788 1024h283l-373 -1024q-80 -221 -212 -320.5t-328 -89.5v246q106 -2 168.5 45t99.5 152l-420 991h289l266 -688zM856 1434l-227 -281h-254l164 281h317z" />
    <glyph glyph-name="thorn" unicode="&#xfe;" 
d="M668 223q124 0 204 81t80 208t-81 208t-203 81t-203 -81q-80 -81 -80 -208t80 -208t203 -81zM713 1053q211 0 357 -157t146 -384t-146 -384t-357 -157t-328 150v-531h-264v1844h264v-531q117 150 328 150z" />
    <glyph glyph-name="ydieresis" unicode="&#xff;" horiz-adv-x="1075" 
d="M788 1024h283l-373 -1024q-80 -221 -212 -320.5t-328 -89.5v246q106 -2 168.5 45t99.5 152l-420 991h289l266 -688zM733.5 1124q-57.5 0 -98.5 40t-41 97.5t41 98.5t98.5 41t97 -41t39.5 -98.5t-39.5 -97.5t-97 -40zM344 1124q-57 0 -98 40t-41 97.5t41 98.5t98 41
t97 -41t40 -98.5t-40 -97.5t-97 -40z" />
    <glyph glyph-name="Amacron" unicode="&#x100;" horiz-adv-x="1368" 
d="M487 522h394l-197 586zM1055 0l-86 258h-572l-86 -258h-305l502 1434h350l504 -1434h-307zM981 1780v-215h-594v215h594z" />
    <glyph glyph-name="amacron" unicode="&#x101;" 
d="M614.5 223q122.5 0 203.5 81t81 208t-81 208t-203.5 81t-202.5 -81t-80 -208t80 -208t202.5 -81zM899 1024h264v-1024h-264v121q-119 -150 -329 -150t-356 157t-146 384t146 384t356 157t329 -150v121zM930 1370v-215h-594v215h594z" />
    <glyph glyph-name="Abreve" unicode="&#x102;" horiz-adv-x="1368" 
d="M487 522h394l-197 586zM1055 0l-86 258h-572l-86 -258h-305l502 1434h350l504 -1434h-307zM685 1530q-163 0 -252 78t-89 219h236q0 -106 104 -107q106 0 107 107h235q0 -141 -89 -219t-252 -78z" />
    <glyph glyph-name="abreve" unicode="&#x103;" 
d="M614.5 223q122.5 0 203.5 81t81 208t-81 208t-203.5 81t-202.5 -81t-80 -208t80 -208t202.5 -81zM899 1024h264v-1024h-264v121q-119 -150 -329 -150t-356 157t-146 384t146 384t356 157t329 -150v121zM634 1120q-163 0 -252 78t-89 219h235q0 -106 105.5 -106t105.5 106
h236q0 -141 -89 -219t-252 -78z" />
    <glyph glyph-name="Aogonek" unicode="&#x104;" horiz-adv-x="1368" 
d="M487 522h394l-197 586zM1001 -258q0 117 136 258h-82l-86 258h-572l-86 -258h-305l502 1434h350l504 -1434q-109 -115 -109 -195q1 -55 52 -55q25 -2 57 10v-166q-78 -33 -165 -32.5t-141.5 46.5t-54.5 134z" />
    <glyph glyph-name="aogonek" unicode="&#x105;" 
d="M614.5 223q122.5 0 203.5 81t81 208t-81 208t-203.5 81t-202.5 -81t-80 -208t80 -208t202.5 -81zM801 -258q0 115 131 258h-33v121q-119 -150 -329 -150t-356 157t-146 384t146 384t356 157t329 -150v121h264v-1024q-109 -113 -108 -195q-4 -55 51 -55q23 -2 57 10v-166
q-82 -33 -168 -32.5t-140 46.5t-54 134z" />
    <glyph glyph-name="Cacute" unicode="&#x106;" horiz-adv-x="1486" 
d="M813 -29q-325 0 -535 215q-210 216 -210 532t210.5 530t534.5 214q195 0 359.5 -91t257.5 -247l-244 -141q-53 96 -151.5 150.5t-221.5 54.5q-209 0 -337 -131t-128 -339t128 -339t337 -131q123 0 222.5 54t150.5 149l244 -142q-92 -156 -256 -247t-361 -91zM649 1579
l164 281h317l-227 -281h-254z" />
    <glyph glyph-name="cacute" unicode="&#x107;" horiz-adv-x="1097" 
d="M608 -29q-231 0 -385.5 156t-154.5 385t154.5 385t385.5 156q150 0 273 -72t186 -193l-227 -133q-31 63 -93.5 100.5t-140.5 37.5q-119 0 -196.5 -79t-77.5 -201t77.5 -201t196.5 -79q80 0 142.5 36t93.5 100l229 -131q-68 -121 -190.5 -194t-272.5 -73zM442 1153
l164 281h318l-228 -281h-254z" />
    <glyph glyph-name="Cdotaccent" unicode="&#x10a;" horiz-adv-x="1486" 
d="M813 -29q-324 0 -534.5 215t-210.5 531.5t210.5 530.5t534.5 214q195 0 359.5 -91t257.5 -247l-244 -141q-53 96 -151.5 150.5t-221.5 54.5q-209 0 -337 -131t-128 -339t128 -339t337 -131q123 0 222.5 54t150.5 149l244 -142q-92 -156 -256 -247t-361 -91zM811.5 1554
q-64.5 0 -111.5 47.5t-47 113t47.5 111.5t111.5 46t111.5 -47t47.5 -112t-47.5 -112t-112 -47z" />
    <glyph glyph-name="cdotaccent" unicode="&#x10b;" horiz-adv-x="1097" 
d="M608 -29q-231 0 -385.5 156t-154.5 385t154.5 385t385.5 156q150 0 273 -72t186 -193l-227 -133q-31 63 -93.5 100.5t-140.5 37.5q-119 0 -196.5 -79t-77.5 -201t77.5 -201t196.5 -79q80 0 142.5 36t93.5 100l229 -131q-68 -121 -190.5 -194t-272.5 -73zM604.5 1128
q-64.5 0 -111.5 47.5t-47 113t47.5 111.5t113 46t111.5 -47t46 -112t-47.5 -112t-112 -47z" />
    <glyph glyph-name="Ccaron" unicode="&#x10c;" horiz-adv-x="1486" 
d="M813 248q123 0 222.5 54t150.5 149l244 -142q-92 -156 -256 -247t-361 -91q-325 0 -535 215q-210 216 -210 532t210.5 530t534.5 214q195 0 359.5 -91t257.5 -247l-244 -141q-53 96 -151.5 150.5t-221.5 54.5q-209 0 -337 -131t-128 -339t128 -339t337 -131zM672 1563
l-217 297h262l90 -134l88 134h262l-217 -297h-268z" />
    <glyph glyph-name="ccaron" unicode="&#x10d;" horiz-adv-x="1097" 
d="M608 -29q-231 0 -385.5 156t-154.5 385t154.5 385t385.5 156q150 0 273 -72t186 -193l-227 -133q-31 63 -93.5 100.5t-140.5 37.5q-119 0 -196.5 -79t-77.5 -201t77.5 -201t196.5 -79q80 0 142.5 36.5t93.5 99.5l229 -131q-68 -121 -190.5 -194t-272.5 -73zM465 1137
l-217 297h262l90 -134l88 134h262l-217 -297h-268z" />
    <glyph glyph-name="Dcaron" unicode="&#x10e;" horiz-adv-x="1460" 
d="M702 270q186 0 303 124t117 322.5t-116.5 322.5t-303.5 124h-286v-893h286zM702 1434q295 0 493 -207t198 -510t-198 -510t-493 -207h-569v1434h569zM545 1546l-217 297h262l90 -133l88 133h262l-217 -297h-268z" />
    <glyph glyph-name="dcaron" unicode="&#x10f;" horiz-adv-x="1505" 
d="M614 223q123 0 203 81t80 208t-80 208t-203 81q-124 0 -204 -81t-80 -208t80 -208t204 -81zM1278 1434h248l-62 -410h-207zM897 1434h264v-1434h-264v121q-117 -150 -328 -150t-357 157t-146 384t146 384t357 157t328 -150v531z" />
    <glyph glyph-name="Dcroat" unicode="&#x110;" horiz-adv-x="1531" 
d="M774 270q186 0 303 124t117 322.5t-116.5 322.5t-303.5 124h-287v-334h326v-254h-326v-305h287zM774 1434q295 0 492.5 -207t197.5 -510t-197.5 -510t-492.5 -207h-569v575h-160v254h160v605h569z" />
    <glyph glyph-name="dcroat" unicode="&#x111;" horiz-adv-x="1296" 
d="M614 223q123 0 204 81t81 208t-81 208t-204 81q-122 0 -202 -81t-80 -208t80 -208t202 -81zM1290 1307v-172h-127v-1135h-264v121q-119 -150 -329 -150t-356 157t-146 384t146 384t356 157t329 -150v232h-309v172h309v127h264v-127h127z" />
    <glyph glyph-name="Emacron" unicode="&#x112;" horiz-adv-x="1085" 
d="M416 270h604v-270h-887v1434h877v-271h-594v-305h542v-266h-542v-322zM868 1780v-215h-594v215h594z" />
    <glyph glyph-name="emacron" unicode="&#x113;" horiz-adv-x="1189" 
d="M600 815q-98 0 -167.5 -54.5t-92.5 -152.5h522q-23 104 -93.5 155.5t-168.5 51.5zM629 -29q-254 0 -407.5 154t-153.5 386t151.5 387t382.5 155t377.5 -156t146.5 -385q0 -51 -10 -109h-772q53 -193 289 -192q152 0 229 102l213 -123q-152 -219 -446 -219zM893 1378v-215
h-594v215h594z" />
    <glyph glyph-name="Edotaccent" unicode="&#x116;" horiz-adv-x="1085" 
d="M416 270h604v-270h-887v1434h877v-271h-594v-305h542v-266h-542v-322zM569.5 1538q-64.5 0 -111 47t-46.5 112.5t47 111.5t111 46t111.5 -47t47.5 -111.5t-47.5 -111.5t-112 -47z" />
    <glyph glyph-name="edotaccent" unicode="&#x117;" horiz-adv-x="1189" 
d="M600 815q-98 0 -167.5 -54.5t-92.5 -152.5h522q-23 104 -93.5 155.5t-168.5 51.5zM629 -29q-254 0 -407.5 154t-153.5 386t151.5 387t382.5 155t377.5 -156t146.5 -385q0 -51 -10 -109h-772q53 -193 289 -192q152 0 229 102l213 -123q-152 -219 -446 -219zM594.5 1137
q-64.5 0 -111.5 47t-47 112.5t47 111.5t111.5 46t112 -47t47.5 -112t-47.5 -111.5t-112 -46.5z" />
    <glyph glyph-name="Eogonek" unicode="&#x118;" horiz-adv-x="1085" 
d="M416 270h604v-270h-2q-106 -113 -107 -195q-4 -55 52 -55q23 -2 55 10v-166q-78 -32 -165 -32t-141.5 46t-54.5 134q0 117 136 258h-660v1434h877v-271h-594v-305h542v-266h-542v-322z" />
    <glyph glyph-name="eogonek" unicode="&#x119;" horiz-adv-x="1189" 
d="M600 815q-98 0 -167.5 -54.5t-92.5 -152.5h522q-23 104 -93.5 155.5t-168.5 51.5zM827 -195q0 -55 52 -55q25 -2 57 10v-166q-82 -33 -168 -32.5t-139.5 46.5t-53.5 134q0 121 134 233q-53 -4 -80 -4q-254 0 -407.5 154t-153.5 386t151.5 387t382.5 155t377.5 -156
t146.5 -385q0 -51 -10 -109h-772q53 -193 289 -192q152 0 229 102l213 -123q-27 -39 -76 -88q-172 -184 -172 -297z" />
    <glyph glyph-name="Ecaron" unicode="&#x11a;" horiz-adv-x="1085" 
d="M416 270h604v-270h-887v1434h877v-271h-594v-305h542v-266h-542v-322zM430 1546l-217 297h262l90 -133l88 133h262l-217 -297h-268z" />
    <glyph glyph-name="ecaron" unicode="&#x11b;" horiz-adv-x="1189" 
d="M600 815q-98 0 -167.5 -54.5t-92.5 -152.5h522q-23 104 -93.5 155.5t-168.5 51.5zM629 -29q-254 0 -407.5 154t-153.5 386t151.5 387t382.5 155t377.5 -156t146.5 -385q0 -51 -10 -109h-772q53 -193 289 -192q152 0 229 102l213 -123q-152 -219 -446 -219zM455 1145
l-217 297h262l90 -133l88 133h262l-217 -297h-268z" />
    <glyph glyph-name="Gbreve" unicode="&#x11e;" horiz-adv-x="1607" 
d="M1540 770v-111q0 -307 -196.5 -497.5t-518 -190.5t-539.5 216t-218 528.5t216 529.5t535 217q201 0 367 -91t258 -243l-242 -139q-51 88 -154.5 143.5t-230.5 55.5q-205 0 -337 -134t-132 -338t134 -336t356 -132q164 0 271.5 72.5t145.5 199.5h-434v250h719zM814 1546
q-163 0 -252 78t-89 219h236q0 -106 105 -106t106 106h235q0 -141 -89 -219t-252 -78z" />
    <glyph glyph-name="gbreve" unicode="&#x11f;" 
d="M618.5 248q124.5 0 205.5 79t81 200.5t-81 200.5t-205.5 79t-205.5 -79t-81 -201t81 -200.5t205.5 -78.5zM905 1024h258v-975q0 -238 -156.5 -362.5t-377.5 -124.5q-166 0 -292 63.5t-194 186.5l226 129q78 -143 268 -144q125 0 196.5 65.5t71.5 186.5v111
q-117 -156 -330.5 -156t-360 152.5t-146.5 370.5t147 372t360.5 154t329.5 -156v127zM609 1137q-163 0 -252 77.5t-89 219.5h236q0 -106 104 -107q106 0 107 107h235q0 -141 -89 -219t-252 -78z" />
    <glyph glyph-name="Gdotaccent" unicode="&#x120;" horiz-adv-x="1607" 
d="M1540 770v-111q0 -307 -196.5 -497.5t-518 -190.5t-539.5 216t-218 528.5t216 529.5t535 217q201 0 367 -91t258 -243l-242 -139q-51 88 -154.5 143.5t-230.5 55.5q-205 0 -337 -134t-132 -338t134 -336t356 -132q164 0 271.5 72.5t145.5 199.5h-434v250h719zM811.5 1554
q-64.5 0 -111.5 47.5t-47 113t47.5 111.5t111.5 46t111.5 -47t47.5 -112t-47.5 -112t-112 -47z" />
    <glyph glyph-name="gdotaccent" unicode="&#x121;" 
d="M618.5 248q124.5 0 205.5 79t81 200.5t-81 200.5t-205.5 79t-205.5 -79t-81 -201t81 -200.5t205.5 -78.5zM905 1024h258v-975q0 -238 -156.5 -362.5t-377.5 -124.5q-166 0 -292 63.5t-194 186.5l226 129q78 -143 268 -144q125 0 196.5 65.5t71.5 186.5v111
q-117 -156 -330.5 -156t-360 152.5t-146.5 370.5t147 372t360.5 154t329.5 -156v127zM606.5 1145q-64.5 0 -111 47t-46.5 112.5t47 111.5t111 46t111.5 -47t47.5 -111.5t-47.5 -111.5t-112 -47z" />
    <glyph glyph-name="Gcommaaccent" unicode="&#x122;" horiz-adv-x="1607" 
d="M698 -539l21 410h250l-62 -410h-209zM1540 770v-111q0 -307 -196 -497t-518 -190.5t-540 215.5q-218 217 -218 529t216 529t535 217q201 0 367 -91t258 -243l-242 -139q-51 88 -154.5 143.5t-230.5 55.5q-205 0 -337 -134t-132 -338t134 -336t356 -132q164 0 271.5 72.5
t145.5 199.5h-434v250h719z" />
    <glyph glyph-name="gcommaaccent" unicode="&#x123;" 
d="M618.5 248q124.5 0 205.5 79t81 201t-81 200.5t-205.5 78.5t-205.5 -79t-81 -201t81 -200.5t205.5 -78.5zM905 1024h258v-975q0 -238 -156.5 -362.5t-377.5 -124.5q-166 0 -292 63.5t-194 186.5l226 129q78 -143 268 -144q125 0 196.5 65.5t71.5 186.5v111
q-117 -156 -331 -156t-360 152.5t-146 370.5t147 372t361 154t329 -156v127zM739 1604l-20 -410h-250l61 410h209z" />
    <glyph glyph-name="Hbar" unicode="&#x126;" horiz-adv-x="1449" 
d="M991 827v199h-532v-199h532zM1399 1233v-207h-127v-1026h-281v557h-532v-557h-283v1026h-125v207h125v201h283v-201h532v201h281v-201h127z" />
    <glyph glyph-name="hbar" unicode="&#x127;" horiz-adv-x="1193" 
d="M702 1053q170 0 280 -113t110 -311v-629h-265v596q0 102 -56 156t-153 55q-96 1 -158 -63t-63 -191v-553h-264v1135h-127v172h127v127h264v-127h289v-172h-289v-228q94 146 305 146z" />
    <glyph glyph-name="Imacron" unicode="&#x12a;" horiz-adv-x="548" 
d="M133 1434h283v-1434h-283v1434zM-23 1565v215h594v-215h-594z" />
    <glyph glyph-name="imacron" unicode="&#x12b;" horiz-adv-x="505" 
d="M121 0v1024h264v-1024h-264zM16 1155v229h471v-229h-471z" />
    <glyph glyph-name="Iogonek" unicode="&#x12e;" horiz-adv-x="548" 
d="M92 -244.5q0 101.5 94 244.5h-53v1434h283v-1434q-70 -115 -70 -195q-4 -55 51 -55q23 -2 58 10v-166q-82 -33 -168 -32.5t-140.5 46.5t-54.5 147.5z" />
    <glyph glyph-name="iogonek" unicode="&#x12f;" horiz-adv-x="505" 
d="M121 0v1024h264v-1024q-69 -114 -71 -182t53 -68q23 -2 55 10v-166q-78 -32 -165 -32t-141 49t-54 147t88 242h-29zM253 1147q-67 0 -115 48t-48 114q0 67 48 115t115 48t115 -48q48 -50 48 -116t-48 -113q-48 -48 -115 -48z" />
    <glyph glyph-name="Idotaccent" unicode="&#x130;" horiz-adv-x="548" 
d="M133 1434h283v-1434h-283v1434zM272.5 1538q-64.5 0 -111 47t-46.5 112.5t47 111.5t112.5 46t111.5 -47t46 -111.5t-47.5 -111.5t-112 -47z" />
    <glyph glyph-name="dotlessi" unicode="&#x131;" horiz-adv-x="505" 
d="M121 0v1024h264v-1024h-264z" />
    <glyph glyph-name="Kcommaaccent" unicode="&#x136;" horiz-adv-x="1259" 
d="M496 -539l20 410h250l-61 -410h-209zM416 0h-283v1434h283v-633l491 633h326l-531 -697l551 -737h-325l-512 672v-672z" />
    <glyph glyph-name="kcommaaccent" unicode="&#x137;" horiz-adv-x="1075" 
d="M440 -539l21 410h250l-62 -410h-209zM385 0h-264v1434h264v-861l352 451h316l-412 -506l424 -518h-307l-373 465v-465z" />
    <glyph glyph-name="Lacute" unicode="&#x139;" horiz-adv-x="989" 
d="M416 270h547v-270h-830v1434h283v-1164zM618 1843l-227 -280h-254l164 280h317z" />
    <glyph glyph-name="lacute" unicode="&#x13a;" horiz-adv-x="505" 
d="M121 0v1495h264v-1495h-264zM117 1563l164 280h317l-227 -280h-254z" />
    <glyph glyph-name="Lcommaaccent" unicode="&#x13b;" horiz-adv-x="989" 
d="M428 -539l21 410h249l-61 -410h-209zM416 270h547v-270h-830v1434h283v-1164z" />
    <glyph glyph-name="lcommaaccent" unicode="&#x13c;" horiz-adv-x="505" 
d="M322 -539h-209l20 410h250zM121 0v1495h264v-1495h-264z" />
    <glyph glyph-name="Lcaron" unicode="&#x13d;" horiz-adv-x="989" 
d="M831 1434l-61 -379h-223l20 379h264zM416 270h547v-270h-830v1434h283v-1164z" />
    <glyph glyph-name="lcaron" unicode="&#x13e;" horiz-adv-x="724" 
d="M684 1085h-209l21 410h249zM121 0v1495h264v-1495h-264z" />
    <glyph glyph-name="Lslash" unicode="&#x141;" horiz-adv-x="1030" 
d="M457 270h547v-270h-830v432l-123 -74v283l123 74v719h283v-551l270 159v-282l-270 -160v-330z" />
    <glyph glyph-name="lslash" unicode="&#x142;" horiz-adv-x="538" 
d="M401 0h-264v496l-110 -76v252l110 76v747h264v-567l111 76v-252l-111 -76v-676z" />
    <glyph glyph-name="Nacute" unicode="&#x143;" horiz-adv-x="1378" 
d="M963 1434h282v-1434h-215l-614 877v-877h-283v1434h215l615 -875v875zM510 1563l164 280h317l-227 -280h-254z" />
    <glyph glyph-name="nacute" unicode="&#x144;" horiz-adv-x="1181" 
d="M690 1053q168 0 277.5 -113t109.5 -311v-629h-264v596q0 102 -55.5 156.5t-152.5 54.5t-158.5 -63.5t-61.5 -190.5v-553h-264v1024h264v-115q96 144 305 144zM928 1450l-228 -281h-254l164 281h318z" />
    <glyph glyph-name="Ncommaaccent" unicode="&#x145;" horiz-adv-x="1378" 
d="M764 -539h-209l20 410h250zM963 1434h282v-1434h-215l-614 877v-877h-283v1434h215l615 -875v875z" />
    <glyph glyph-name="ncommaaccent" unicode="&#x146;" horiz-adv-x="1181" 
d="M467 -539l20 410h250l-61 -410h-209zM690 1053q168 0 277.5 -113t109.5 -311v-629h-264v596q0 102 -55.5 156.5t-152.5 54.5t-158.5 -63.5t-61.5 -190.5v-553h-264v1024h264v-115q96 144 305 144z" />
    <glyph glyph-name="Ncaron" unicode="&#x147;" horiz-adv-x="1378" 
d="M963 1434h282v-1434h-215l-614 877v-877h-283v1434h215l615 -875v875zM532 1546l-217 297h263l90 -133l88 133h262l-217 -297h-269z" />
    <glyph glyph-name="ncaron" unicode="&#x148;" horiz-adv-x="1181" 
d="M690 1053q168 0 277.5 -113t109.5 -311v-629h-264v596q0 102 -55.5 156.5t-152.5 54.5t-158.5 -63.5t-61.5 -190.5v-553h-264v1024h264v-115q96 144 305 144zM469 1153l-217 297h262l90 -133l88 133h262l-217 -297h-268z" />
    <glyph glyph-name="Eng" unicode="&#x14a;" horiz-adv-x="1378" 
d="M963 1434h282v-1434q0 -209 -125 -315.5t-352 -94.5v258q98 0 146.5 36t48.5 132v80l-547 781v-877h-283v1434h215l615 -875v875z" />
    <glyph glyph-name="eng" unicode="&#x14b;" horiz-adv-x="1181" 
d="M690 1053q168 0 278 -113t109 -311v-649q1 -213 -107 -323t-323 -95v254q84 -8 125 30t41 134v616q0 102 -55 156q-54 54 -152 55t-160 -63t-61 -191v-553h-264v1024h264v-115q96 144 305 144z" />
    <glyph glyph-name="Omacron" unicode="&#x14c;" horiz-adv-x="1622" 
d="M811 248q197 0 330 132t133 337t-133 338t-330 133t-330 -133t-133 -338t133 -337t330 -132zM811 -29q-311 0 -527 216t-216 529.5t216 529.5t527 216t528 -216t217 -529.5t-217 -529.5t-528 -216zM514 1581v215h594v-215h-594z" />
    <glyph glyph-name="omacron" unicode="&#x14d;" horiz-adv-x="1216" 
d="M608 229q119 0 199 80t80 203t-80 203t-199 80t-197.5 -80t-78.5 -203t78.5 -203t197.5 -80zM608.5 -29q-227.5 0 -384 157t-156.5 384t156.5 384t384 157t385 -157t157.5 -384t-157.5 -384t-385 -157zM311 1171v215h594v-215h-594z" />
    <glyph glyph-name="Ohungarumlaut" unicode="&#x150;" horiz-adv-x="1622" 
d="M811 248q197 0 330 132t133 337t-133 338t-330 133t-330 -133t-133 -338t133 -337t330 -132zM811 -29q-311 0 -527 216t-216 529.5t216 529.5t527 216t528 -216t217 -529.5t-217 -529.5t-528 -216zM807 1563l180 282h275l-193 -282h-262zM453 1563l159 282h275l-172 -282
h-262z" />
    <glyph glyph-name="ohungarumlaut" unicode="&#x151;" horiz-adv-x="1216" 
d="M608 229q119 0 199 80t80 203t-80 203t-199 80t-197.5 -80t-78.5 -203t78.5 -203t197.5 -80zM608.5 -29q-227.5 0 -384 157t-156.5 384t156.5 384t384 157t385 -157t157.5 -384t-157.5 -384t-385 -157zM604 1153l180 283h275l-193 -283h-262zM250 1153l160 283h274
l-172 -283h-262z" />
    <glyph glyph-name="OE" unicode="&#x152;" horiz-adv-x="1875" 
d="M791 1188q-195 0 -319 -132t-124 -339t124 -338t319 -131q120 0 204 31v878q-92 31 -204 31zM1276 270h532v-270h-813q-98 -29 -204 -29q-309 0 -517 215q-206 214 -206 530t206 531q207 215 517 215q106 0 204 -28h803v-271h-522v-305h477v-266h-477v-322z" />
    <glyph glyph-name="oe" unicode="&#x153;" horiz-adv-x="2009" 
d="M332 512q0 -125 78 -204t197 -79q120 0 200 80t80 203t-80 203t-200 80q-119 0 -197 -79t-78 -204zM1422 815q-96 0 -168 -54q-70 -55 -95 -151h522q-23 104 -92 155q-71 50 -167 50zM1444 211q160 0 237 102l213 -123q-152 -219 -446 -219t-430 230q-141 -229 -418 -230
q-227 0 -380 156t-152 385q0 229 152 385q153 156 380 156q135 -1 244 -61t172 -167q133 227 424 228q223 0 364 -156t142 -385q0 -51 -11 -109h-772q29 -98 106 -145t175 -47z" />
    <glyph glyph-name="Racute" unicode="&#x154;" horiz-adv-x="1257" 
d="M416 1169v-424h291q80 0 137 62.5t57 151t-57.5 149.5t-136.5 61h-291zM416 498v-498h-283v1434h574q199 0 338 -139.5t139 -336.5q0 -133 -76 -246.5t-201 -170.5l318 -541h-305l-289 498h-215zM922 1843l-228 -280h-254l164 280h318z" />
    <glyph glyph-name="racute" unicode="&#x155;" horiz-adv-x="729" 
d="M696 1044v-294q-121 14 -216 -49.5t-95 -211.5v-489h-264v1024h264v-176q37 98 122 147t189 49zM713 1434l-228 -281h-254l164 281h318z" />
    <glyph glyph-name="Rcommaaccent" unicode="&#x156;" horiz-adv-x="1257" 
d="M528 -539l21 410h250l-62 -410h-209zM416 1169v-424h291q80 0 137 62.5t57 151t-57.5 149.5t-136.5 61h-291zM416 498v-498h-283v1434h574q199 0 338 -139.5t139 -336.5q0 -133 -76 -246.5t-201 -170.5l318 -541h-305l-289 498h-215z" />
    <glyph glyph-name="rcommaaccent" unicode="&#x157;" horiz-adv-x="729" 
d="M113 -539l20 410h250l-61 -410h-209zM696 1044v-294q-121 14 -216 -49.5t-95 -211.5v-489h-264v1024h264v-176q37 98 122 147t189 49z" />
    <glyph glyph-name="Rcaron" unicode="&#x158;" horiz-adv-x="1257" 
d="M416 1169v-424h291q80 0 137 62.5t57 151t-57.5 149.5t-136.5 61h-291zM416 498v-498h-283v1434h574q199 0 338 -139.5t139 -336.5q0 -133 -76 -246.5t-201 -170.5l318 -541h-305l-289 498h-215zM463 1546l-217 297h262l90 -133l88 133h262l-217 -297h-268z" />
    <glyph glyph-name="rcaron" unicode="&#x159;" horiz-adv-x="729" 
d="M696 1044v-294q-121 14 -216 -49.5t-95 -211.5v-489h-264v1024h264v-176q37 98 122 147t189 49zM254 1137l-217 297h262l90 -134l88 134h262l-217 -297h-268z" />
    <glyph glyph-name="Sacute" unicode="&#x15a;" horiz-adv-x="1193" 
d="M632 -29q-222 0 -367.5 95.5t-205.5 259.5l242 141q84 -219 330 -219q119 0 174 43t55 113.5t-67.5 112.5t-202.5 81t-201.5 67.5t-133.5 76.5q-136 98 -136 293.5t138 311t322.5 115.5t316.5 -85t206 -236l-238 -137q-86 184 -274 184q-88 0 -138.5 -40t-50.5 -106
t56.5 -107.5t169.5 -76t146.5 -46t92 -35t90.5 -43.5q98 -64 142.5 -141t44.5 -190q0 -199 -144.5 -315.5t-366.5 -116.5zM436 1579l164 281h318l-228 -281h-254z" />
    <glyph glyph-name="sacute" unicode="&#x15b;" horiz-adv-x="952" 
d="M365 732q0 -40 54 -65.5t132 -45t155.5 -49t132 -99.5t54.5 -174q0 -158 -118 -243t-294 -85q-315 0 -430 244l230 129q45 -133 193 -133t149 88q0 41 -54.5 66.5t-132.5 46t-155.5 51.5t-132 97.5t-54.5 166.5q0 152 112 239q110 87 256 87q286 0 410 -217l-225 -123
q-49 104 -164 104q-51 0 -84.5 -22.5t-33.5 -62.5zM791 1450l-228 -281h-254l164 281h318z" />
    <glyph glyph-name="Scedilla" unicode="&#x15e;" horiz-adv-x="1193" 
d="M1143 403q0 -174 -110.5 -285.5t-299.5 -137.5v-74q59 -14 101.5 -54t42.5 -106q0 -215 -451 -188v186q221 -14 221 41q0 41 -129 51v141q-172 23 -289.5 114t-169.5 235l242 141q84 -219 330 -219q119 0 174 43t55 113.5t-67.5 112.5t-202.5 81t-201.5 67.5t-133.5 76.5
q-136 98 -136 293.5t138 311t322.5 115.5t316.5 -85t206 -236l-238 -137q-86 184 -274 184q-88 0 -138.5 -40t-50.5 -106t56.5 -107.5t169.5 -76t146.5 -46t92 -35t90.5 -43.5q98 -64 142.5 -141t44.5 -190z" />
    <glyph glyph-name="scedilla" unicode="&#x15f;" horiz-adv-x="952" 
d="M893 287.5q0 -115.5 -78 -196.5t-207 -107v-78q59 -14 101.5 -54t42.5 -106q0 -215 -451 -188v186q221 -14 221 41q0 41 -129 51v141q-246 31 -342 238l230 129q45 -133 193 -133t149 88q0 41 -54.5 66.5t-132.5 46t-155.5 51.5t-132 97.5t-54.5 166.5q0 152 112 239
q110 87 256 87q286 0 410 -217l-225 -123q-49 104 -164 104q-51 0 -84.5 -22.5t-33.5 -62.5t54 -65.5t132 -45t155.5 -49t132 -99.5t54.5 -185.5z" />
    <glyph glyph-name="Scaron" unicode="&#x160;" horiz-adv-x="1193" 
d="M1143 403q0 -199 -144.5 -315.5t-366.5 -116.5t-367.5 95.5t-205.5 259.5l242 141q84 -219 330 -219q119 0 174 43t55 113.5t-67.5 112.5t-202.5 81t-201.5 67.5t-133.5 76.5q-136 98 -136 293.5t138 311t322.5 115.5t316.5 -85t206 -236l-238 -137q-86 184 -274 184
q-88 0 -138.5 -40t-50.5 -106t56.5 -107.5t169.5 -76t146.5 -46t92 -35t90.5 -43.5q98 -64 142.5 -141t44.5 -190zM459 1563l-217 297h262l90 -134l88 134h262l-217 -297h-268z" />
    <glyph glyph-name="scaron" unicode="&#x161;" horiz-adv-x="952" 
d="M365 732q0 -40 54 -65.5t132 -45t155.5 -49t132 -99.5t54.5 -174q0 -158 -118 -243t-294 -85q-315 0 -430 244l230 129q45 -133 193 -133t149 88q0 41 -54.5 66.5t-132.5 46t-155.5 51.5t-132 97.5t-54.5 166.5q0 152 112 239q110 87 256 87q286 0 410 -217l-225 -123
q-49 104 -164 104q-51 0 -84.5 -22.5t-33.5 -62.5zM332 1153l-217 297h262l90 -133l88 133h262l-217 -297h-268z" />
    <glyph glyph-name="uni0162" unicode="&#x162;" horiz-adv-x="1105" 
d="M420 -539l20 410h250l-61 -410h-209zM1081 1434v-271h-387v-1163h-282v1163h-385v271h1054z" />
    <glyph glyph-name="uni0163" unicode="&#x163;" horiz-adv-x="788" 
d="M332 -539l20 410h250l-61 -410h-209zM707 770h-232v-426q1 -99 105 -105q52 -3 127 1v-240q-272 -31 -384 51t-112 293v426h-178v254h178v207l264 80v-287h232v-254z" />
    <glyph glyph-name="Tcaron" unicode="&#x164;" horiz-adv-x="1105" 
d="M1081 1434v-271h-387v-1163h-282v1163h-385v271h1054zM412 1546l-217 297h262l90 -133l88 133h262l-217 -297h-268z" />
    <glyph glyph-name="tcaron" unicode="&#x165;" horiz-adv-x="831" 
d="M475 1024h232v-254h-232v-426q1 -99 105 -105q52 -3 127 1v-240q-272 -31 -384 51t-112 293v426h-178v254h178v207l264 80v-287zM586 1487h250l-62 -373h-209z" />
    <glyph glyph-name="Tbar" unicode="&#x166;" horiz-adv-x="1105" 
d="M1081 1163h-387v-334h244v-254h-244v-575h-282v575h-242v254h242v334h-385v271h1054v-271z" />
    <glyph glyph-name="tbar" unicode="&#x167;" horiz-adv-x="788" 
d="M707 770h-232v-149h164v-213h-164v-64q0 -101 105 -105q51 -3 127 1v-240q-272 -31 -384 51t-112 293v64h-119v213h119v149h-178v254h178v207l264 80v-287h232v-254z" />
    <glyph glyph-name="Umacron" unicode="&#x16a;" horiz-adv-x="1337" 
d="M669 -29q-241 0 -394.5 135.5t-153.5 362.5v965h280v-942q0 -113 64.5 -178.5t202 -65.5t202 65.5t64.5 178.5v942h283v-965q0 -227 -153.5 -362.5t-394.5 -135.5zM371 1565v215h594v-215h-594z" />
    <glyph glyph-name="umacron" unicode="&#x16b;" horiz-adv-x="1181" 
d="M797 1024h264v-1024h-264v115q-96 -143 -305 -144q-168 0 -278 113t-110 311v629h265v-596q0 -102 55 -156.5t152 -54.5t159 63.5t62 190.5v553zM879 1370v-215h-594v215h594z" />
    <glyph glyph-name="Uring" unicode="&#x16e;" horiz-adv-x="1337" 
d="M669 -29q-241 0 -394.5 135.5t-153.5 362.5v965h280v-942q0 -113 64.5 -178.5t202 -65.5t202 65.5t64.5 178.5v942h283v-965q0 -227 -153.5 -362.5t-394.5 -135.5zM668 1618q82 0 82 77t-82 77q-37 0 -58.5 -21.5t-21.5 -55.5t21.5 -55.5t58.5 -21.5zM669 1452
q-114 0 -186.5 69.5t-72.5 174t72.5 173t186.5 68.5t185.5 -68.5t71.5 -173.5t-71.5 -174t-185.5 -69z" />
    <glyph glyph-name="uring" unicode="&#x16f;" horiz-adv-x="1181" 
d="M797 1024h264v-1024h-264v115q-96 -143 -305 -144q-168 0 -278 113t-110 311v629h265v-596q0 -102 55 -156.5t152 -54.5t159 63.5t62 190.5v553zM582 1423q-37 0 -58.5 -21.5t-21.5 -55t21.5 -55t58.5 -21.5q82 0 82 76.5t-82 76.5zM583 1104q-114 0 -186.5 69.5
t-72.5 174t72.5 173t186.5 68.5t185.5 -68.5t71.5 -173.5t-71.5 -174t-185.5 -69z" />
    <glyph glyph-name="Uhungarumlaut" unicode="&#x170;" horiz-adv-x="1337" 
d="M669 -29q-241 0 -394.5 135.5t-153.5 362.5v965h280v-942q0 -113 64.5 -178.5t202 -65.5t202 65.5t64.5 178.5v942h283v-965q0 -227 -153.5 -362.5t-394.5 -135.5zM664 1546l180 283h274l-192 -283h-262zM309 1546l160 283h274l-172 -283h-262z" />
    <glyph glyph-name="uhungarumlaut" unicode="&#x171;" horiz-adv-x="1181" 
d="M797 1024h264v-1024h-264v115q-96 -143 -305 -144q-168 0 -278 113t-110 311v629h265v-596q0 -102 55 -156.5t152 -54.5t159 63.5t62 190.5v553zM840 1137h-262l180 282h274zM657 1419l-172 -282h-262l160 282h274z" />
    <glyph glyph-name="Uogonek" unicode="&#x172;" horiz-adv-x="1337" 
d="M934 1434h283v-965q0 -250 -185 -387q-104 -98 -145 -158q-41 -58 -43 -114t51 -60q23 -2 55 10v-166q-78 -32 -165 -32t-141 46t-54 141t110 222h-32q-240 0 -393.5 135.5t-153.5 362.5v965h280v-942q0 -113 64.5 -178.5t202 -65.5t202 65.5t64.5 178.5v942z" />
    <glyph glyph-name="uogonek" unicode="&#x173;" horiz-adv-x="1181" 
d="M1061 1024v-1024q-109 -115 -109 -195q0 -55 52 -55q25 -2 57 10v-166q-78 -32 -165 -32t-141.5 46t-54.5 143t131 249h-34v115q-96 -143 -305 -144q-168 0 -278 113t-110 311v629h265v-596q0 -102 55 -156.5t152 -54.5t159 63.5t62 190.5v553h264z" />
    <glyph glyph-name="Wcircumflex" unicode="&#x174;" horiz-adv-x="2045" 
d="M1718 1434h297l-401 -1434h-322l-270 946l-268 -946h-322l-401 1434h297l274 -1063l299 1063h242l301 -1063zM1077 1679l-90 -133h-262l217 297h268l217 -297h-262z" />
    <glyph glyph-name="wcircumflex" unicode="&#x175;" horiz-adv-x="1576" 
d="M1274 1024h280l-325 -1024h-252l-189 621l-188 -621h-252l-325 1024h280l174 -629l187 629h249l187 -631zM782 1270l-90 -133h-262l217 297h268l218 -297h-263z" />
    <glyph glyph-name="Ycircumflex" unicode="&#x176;" horiz-adv-x="1271" 
d="M776 0h-280v559l-490 875h320l311 -598l311 598h320l-492 -875v-559zM629 1679l-90 -133h-263l218 297h268l217 -297h-262z" />
    <glyph glyph-name="ycircumflex" unicode="&#x177;" horiz-adv-x="1075" 
d="M788 1024h283l-373 -1024q-80 -221 -212 -320.5t-328 -89.5v246q106 -2 168.5 45t99.5 152l-420 991h289l266 -688zM532 1270l-90 -133h-262l217 297h269l217 -297h-262z" />
    <glyph glyph-name="Ydieresis" unicode="&#x178;" horiz-adv-x="1271" 
d="M776 0h-280v559l-490 875h320l311 -598l311 598h320l-492 -875v-559zM829.5 1534q-57.5 0 -98.5 40t-41 97.5t41 98t98.5 40.5t97.5 -40.5t40 -98t-40 -97.5t-97.5 -40zM440.5 1534q-57.5 0 -98.5 40t-41 97.5t41 98t98.5 40.5t97.5 -40.5t40 -98t-40 -97.5t-97.5 -40z
" />
    <glyph glyph-name="Zacute" unicode="&#x179;" horiz-adv-x="1095" 
d="M1042 270v-270h-968v225l596 938h-582v271h942v-224l-596 -940h608zM877 1843l-228 -280h-254l164 280h318z" />
    <glyph glyph-name="zacute" unicode="&#x17a;" horiz-adv-x="970" 
d="M897 248v-248h-809v176l432 600h-411v248h768v-176l-435 -600h455zM811 1434l-227 -281h-254l164 281h317z" />
    <glyph glyph-name="Zdotaccent" unicode="&#x17b;" horiz-adv-x="1095" 
d="M1042 270v-270h-968v225l596 938h-582v271h942v-224l-596 -940h608zM557.5 1538q-64.5 0 -111.5 47t-47 112.5t47.5 111.5t111.5 46t111.5 -47t47.5 -111.5t-47.5 -111.5t-112 -47z" />
    <glyph glyph-name="zdotaccent" unicode="&#x17c;" horiz-adv-x="970" 
d="M897 248v-248h-809v176l432 600h-411v248h768v-176l-435 -600h455zM492.5 1128q-64.5 0 -111.5 47.5t-47 113t47 111.5t111.5 46t111.5 -47t47 -112t-47 -112t-111.5 -47z" />
    <glyph glyph-name="Zcaron" unicode="&#x17d;" horiz-adv-x="1095" 
d="M1042 270v-270h-968v225l596 938h-582v271h942v-224l-596 -940h608zM418 1546l-217 297h262l90 -133l88 133h262l-217 -297h-268z" />
    <glyph glyph-name="zcaron" unicode="&#x17e;" horiz-adv-x="970" 
d="M897 248v-248h-809v176l432 600h-411v248h768v-176l-435 -600h455zM352 1137l-217 297h262l90 -134l88 134h263l-217 -297h-269z" />
    <glyph glyph-name="florin" unicode="&#x192;" horiz-adv-x="903" 
d="M831 848v-254h-229l-115 -678q-37 -217 -169 -297t-318 -31v262q68 -37 138 -6t83 121l107 629h-172v254h217l45 268q37 217 169 297t316 31v-264q-65 37 -135 6t-86 -121l-37 -217h186z" />
    <glyph glyph-name="Scommaaccent" unicode="&#x218;" horiz-adv-x="1193" 
d="M698 -539h-209l21 410h250zM632 -29q-222 0 -367.5 95.5t-205.5 259.5l242 141q84 -219 330 -219q119 0 174 43t55 113.5t-67.5 112.5t-202.5 81t-201.5 67.5t-133.5 76.5q-136 98 -136 293.5t138 311t322.5 115.5t316.5 -85t206 -236l-238 -137q-86 184 -274 184
q-88 0 -138.5 -40t-50.5 -106t56.5 -107.5t169.5 -76t146.5 -46t92 -35t90.5 -43.5q98 -64 142.5 -141t44.5 -190q0 -199 -144.5 -315.5t-366.5 -116.5z" />
    <glyph glyph-name="scommaaccent" unicode="&#x219;" horiz-adv-x="952" 
d="M365 -539l20 410h250l-62 -410h-208zM365 732q0 -40 54 -65.5t132 -45t155.5 -49t132 -99.5t54.5 -174q0 -158 -118 -243t-294 -85q-315 0 -430 244l230 129q45 -133 193 -133t149 88q0 41 -54.5 66.5t-132.5 46t-155.5 51.5t-132 97.5t-54.5 166.5q0 152 112 239
q110 87 256 87q286 0 410 -217l-225 -123q-49 104 -164 104q-51 0 -84.5 -22.5t-33.5 -62.5z" />
    <glyph glyph-name="uni021A" unicode="&#x21a;" horiz-adv-x="1105" 
d="M420 -539l20 410h250l-61 -410h-209zM1081 1434v-271h-387v-1163h-282v1163h-385v271h1054z" />
    <glyph glyph-name="uni021B" unicode="&#x21b;" horiz-adv-x="788" 
d="M332 -539l20 410h250l-61 -410h-209zM707 770h-232v-426q1 -99 105 -105q52 -3 127 1v-240q-272 -31 -384 51t-112 293v426h-178v254h178v207l264 80v-287h232v-254z" />
    <glyph glyph-name="circumflex" unicode="&#x2c6;" horiz-adv-x="784" 
d="M743 1137h-262l-88 133l-90 -133h-262l217 297h268z" />
    <glyph glyph-name="caron" unicode="&#x2c7;" horiz-adv-x="784" 
d="M481 1434h262l-217 -297h-268l-217 297h262l90 -134z" />
    <glyph glyph-name="breve" unicode="&#x2d8;" horiz-adv-x="763" 
d="M382 1120q-163 0 -252 78t-89 219h235q0 -106 106 -106t105 106h236q0 -141 -89 -219t-252 -78z" />
    <glyph glyph-name="dotaccent" unicode="&#x2d9;" horiz-adv-x="415" 
d="M201 1446q65 0 111 -47t46 -112t-47 -112t-111 -47t-112 48q-47 48 -47 112q0 66 47 112t113 46z" />
    <glyph glyph-name="ring" unicode="&#x2da;" horiz-adv-x="600" 
d="M299 1270q82 0 82 77t-82 76q-37 1 -59 -21t-21 -56q-1 -34 21 -54q22 -22 59 -22zM557 1347q1 -105 -71 -174t-186 -69t-186 70t-73 174q0 104 73 173q72 69 186 69t186 -70q72 -68 71 -173z" />
    <glyph glyph-name="ogonek" unicode="&#x2db;" horiz-adv-x="442" 
d="M237 -438q-87 0 -142 46q-54 46 -54 134q0 117 135 258h225q-106 -113 -106 -195q-4 -55 51 -55q23 -2 55 10v-166q-77 -32 -164 -32z" />
    <glyph glyph-name="tilde" unicode="&#x2dc;" horiz-adv-x="776" 
d="M43 1147q0 271 165 302q97 18 208 -54q59 -41 83 -33t23 82h215q0 -117 -34 -192q-62 -137 -206 -110q-65 11 -128 53t-88 34t-25 -82h-213z" />
    <glyph glyph-name="hungarumlaut" unicode="&#x2dd;" horiz-adv-x="890" 
d="M395 1137l180 282h275l-193 -282h-262zM41 1137l160 282h274l-172 -282h-262z" />
    <glyph glyph-name="gravecomb" unicode="&#x300;" horiz-adv-x="0" 
d="M-41 1153h-254l-227 281h317z" />
    <glyph glyph-name="acutecomb" unicode="&#x301;" horiz-adv-x="0" 
d="M-522 1153l164 281h317l-227 -281h-254z" />
    <glyph glyph-name="uni0302" unicode="&#x302;" horiz-adv-x="0" 
d="M-41 1137h-262l-88 133l-90 -133h-262l217 297h268z" />
    <glyph glyph-name="tildecomb" unicode="&#x303;" horiz-adv-x="0" 
d="M-719 1147q0 271 165 302q98 18 208 -54q59 -41 82.5 -33t23.5 82h215q0 -117 -33.5 -191.5t-87.5 -98.5q-110 -48 -251 42q-59 41 -84 33t-25 -82h-213z" />
    <glyph glyph-name="uni0304" unicode="&#x304;" horiz-adv-x="0" 
d="M-635 1155v215h594v-215h-594z" />
    <glyph glyph-name="uni0306" unicode="&#x306;" horiz-adv-x="0" 
d="M-382 1120q-163 0 -252 78t-89 219h236q0 -106 105 -106t106 106h235q0 -141 -89 -219t-252 -78z" />
    <glyph glyph-name="uni0307" unicode="&#x307;" horiz-adv-x="0" 
d="M-200.5 1128q-64.5 0 -111 47.5t-46.5 113t47 111.5t111 46t111.5 -47t47.5 -112t-47.5 -112t-112 -47z" />
    <glyph glyph-name="uni0308" unicode="&#x308;" horiz-adv-x="0" 
d="M-178.5 1124q-57.5 0 -98 40t-40.5 97.5t40.5 98.5t98 41t97.5 -41t40 -98.5t-40 -97.5t-97.5 -40zM-567.5 1124q-57.5 0 -98.5 40t-41 97.5t41 98.5t98.5 41t97.5 -41t40 -98.5t-40 -97.5t-97.5 -40z" />
    <glyph glyph-name="uni030A" unicode="&#x30a;" horiz-adv-x="0" 
d="M-307 1270q82 0 82 77t-82 76q-37 0 -58.5 -21.5t-21.5 -55t21.5 -55t58.5 -21.5zM-306 1104q-114 0 -186.5 69.5t-72.5 174t72.5 173t186.5 68.5t185.5 -68.5t71.5 -173.5t-71.5 -174t-185.5 -69z" />
    <glyph glyph-name="uni030B" unicode="&#x30b;" horiz-adv-x="0" 
d="M-496 1137l181 282h274l-192 -282h-263zM-850 1137l160 282h274l-172 -282h-262z" />
    <glyph glyph-name="uni030C" unicode="&#x30c;" horiz-adv-x="0" 
d="M-303 1434h262l-217 -297h-268l-217 297h262l90 -134z" />
    <glyph glyph-name="uni0312" unicode="&#x312;" horiz-adv-x="0" 
d="M-250 1997h209l-20 -410h-250z" />
    <glyph glyph-name="uni0326" unicode="&#x326;" horiz-adv-x="0" 
d="M-102 -539h-209l20 410h250z" />
    <glyph glyph-name="uni0327" unicode="&#x327;" horiz-adv-x="0" 
d="M-41 -254q0 -215 -451 -188v186q221 -14 222 41q0 41 -129 51v164h215v-94q59 -14 101 -54t42 -106z" />
    <glyph glyph-name="uni0328" unicode="&#x328;" horiz-adv-x="0" 
d="M-222 -438q-87 0 -141.5 46t-54.5 134q0 117 135 258h226q-106 -113 -107 -195q-4 -55 51 -55q23 -2 56 10v-166q-78 -32 -165 -32z" />
    <glyph glyph-name="uni0394" unicode="&#x394;" horiz-adv-x="1337" 
d="M395 264h545l-272 856zM844 1434l487 -1434h-1325l488 1434h350z" />
    <glyph glyph-name="uni03A9" unicode="&#x3a9;" horiz-adv-x="1591" 
d="M51 754q0 296 217 502q218 206 528 206t527 -206t217 -502q0 -295 -219 -484h192v-270h-567v270q141 45 228 165q86 120 86 282q0 205 -134 338t-330 133t-329 -133t-133 -338q0 -162 85 -282t226 -165v-270h-565v270h190q-219 188 -219 484z" />
    <glyph glyph-name="pi" unicode="&#x3c0;" horiz-adv-x="1361" 
d="M1317 1024v-248h-164v-776h-264v776h-408v-776h-264v776h-170v248h1270z" />
    <glyph glyph-name="uni0401" unicode="&#x401;" horiz-adv-x="1085" 
d="M416 270h604v-270h-887v1434h877v-271h-594v-305h542v-266h-542v-322zM766 1534q-57 0 -98 40t-41 97.5t41 98t98 40.5t97 -40.5t40 -98t-40 -97.5t-97 -40zM376.5 1534q-57.5 0 -98 40t-40.5 97.5t40.5 98t98 40.5t97.5 -40.5t40 -98t-40 -97.5t-97.5 -40z" />
    <glyph glyph-name="uni0402" unicode="&#x402;" horiz-adv-x="1439" 
d="M952 954q176 0 280 -103t105 -296v-158q1 -225 -109 -328t-335 -89v262q90 -6 127 30t37 125v129q0 174 -166 174q-96 0 -223 -41v-659h-281v1163h-360v271h1048v-271h-407v-254q147 45 284 45z" />
    <glyph glyph-name="uni0403" unicode="&#x403;" horiz-adv-x="972" 
d="M948 1434v-271h-532v-1163h-283v1434h815zM868 1841l-227 -280h-254l164 280h317z" />
    <glyph glyph-name="uni0404" unicode="&#x404;" horiz-adv-x="1482" 
d="M811 248q121 0 220 54t151 149l243 -142q-92 -156 -256 -247t-358 -91q-324 0 -535 215q-210 216 -210 532t210 530q211 214 535 214q193 0 357 -91t257 -247l-243 -141q-54 97 -152 151t-219 54q-174 0 -293 -91t-156 -247h639v-264h-639q37 -156 156 -247t293 -91z" />
    <glyph glyph-name="uni0405" unicode="&#x405;" horiz-adv-x="1193" 
d="M632 -29q-222 0 -367.5 95.5t-205.5 259.5l242 141q84 -219 330 -219q119 0 174 43t55 113.5t-67.5 112.5t-202.5 81t-201.5 67.5t-133.5 76.5q-136 98 -136 293.5t138 311t322.5 115.5t316.5 -85t206 -236l-238 -137q-86 184 -274 184q-88 0 -138.5 -40t-50.5 -106
t56.5 -107.5t169.5 -76t146.5 -46t92 -35t90.5 -43.5q98 -64 142.5 -141t44.5 -190q0 -199 -144.5 -315.5t-366.5 -116.5z" />
    <glyph glyph-name="uni0406" unicode="&#x406;" horiz-adv-x="548" 
d="M133 1434h283v-1434h-283v1434z" />
    <glyph glyph-name="uni0407" unicode="&#x407;" horiz-adv-x="548" 
d="M133 1434h283v-1434h-283v1434zM469 1534q-57 0 -98 40t-41 97.5t41 98t98 40.5t97 -40.5t40 -98t-40 -97.5t-97 -40zM80 1534q-57 0 -98 40t-41 97.5t41 98t98 40.5t97 -40.5t40 -98t-40 -97.5t-97 -40z" />
    <glyph glyph-name="uni0408" unicode="&#x408;" horiz-adv-x="1165" 
d="M541 -29q-338 0 -473 273l243 139q68 -135 230 -135q113 0 168 53t55 145v988h280v-988q0 -225 -141 -350t-362 -125z" />
    <glyph glyph-name="uni0409" unicode="&#x409;" horiz-adv-x="1968" 
d="M1434 264q88 0 145 49t57 135t-57 136q-57 49 -145 49h-213v-369h213zM1434 897q207 0 345 -127q138 -126 138 -322t-138 -322t-345 -126h-494v1163h-383v-569q0 -186 -45 -314t-124 -190q-150 -116 -365 -94v262q127 -14 190 56t63 272v848h945v-537h213z" />
    <glyph glyph-name="uni040A" unicode="&#x40a;" horiz-adv-x="1961" 
d="M1425 264q88 0 146 49q57 49 57 135t-57 136q-57 49 -146 49h-211v-369h211zM1425 897q207 0 347 -127q140 -126 139 -322q0 -196 -139 -322t-347 -126h-493v633h-516v-633h-283v1434h283v-537h516v537h282v-537h211z" />
    <glyph glyph-name="uni040B" unicode="&#x40b;" horiz-adv-x="1449" 
d="M952 954q176 0 280 -103t105 -296v-555h-280v526q0 174 -166 174q-96 0 -223 -41v-659h-281v1163h-360v271h1048v-271h-407v-254q147 45 284 45z" />
    <glyph glyph-name="uni040C" unicode="&#x40c;" horiz-adv-x="1259" 
d="M416 0h-283v1434h283v-633l491 633h326l-531 -697l551 -737h-325l-512 672v-672zM950 1841l-227 -280h-254l164 280h317z" />
    <glyph glyph-name="uni040E" unicode="&#x40e;" horiz-adv-x="1228" 
d="M926 1434h282l-430 -1039q-172 -418 -565 -395v264q115 -10 185.5 32t117.5 136l-469 1002h283l313 -693zM915 1792v-229h-593v229h593z" />
    <glyph glyph-name="uni040F" unicode="&#x40f;" horiz-adv-x="1337" 
d="M922 1434h282v-1434h-395v-274h-281v274h-395v1434h283v-1164h506v1164z" />
    <glyph glyph-name="uni0410" unicode="&#x410;" horiz-adv-x="1368" 
d="M487 522h394l-197 586zM1055 0l-86 258h-572l-86 -258h-305l502 1434h350l504 -1434h-307z" />
    <glyph glyph-name="uni0411" unicode="&#x411;" horiz-adv-x="1198" 
d="M682 264q84 0 139 48t56 134t-55 134t-140 47h-266v-363h266zM682 891q209 0 342 -124t133 -322q0 -197 -133 -321t-342 -124h-549v1434h901v-271h-618v-272h266z" />
    <glyph glyph-name="uni0412" unicode="&#x412;" horiz-adv-x="1239" 
d="M741 264q72 0 119 48t47 121t-47 121t-119 48h-325v-338h325zM698 1169h-282v-315h282q66 0 110 45t44 113t-43 112t-111 45zM741 0h-608v1434h565q184 0 310 -114t126 -291t-135 -286q188 -109 189 -327q0 -182 -129 -299t-318 -117z" />
    <glyph glyph-name="uni0413" unicode="&#x413;" horiz-adv-x="972" 
d="M948 1434v-271h-532v-1163h-283v1434h815z" />
    <glyph glyph-name="uni0414" unicode="&#x414;" horiz-adv-x="1443" 
d="M952 270v899h-381v-417q0 -312 -98 -482h479zM1235 270h154v-544h-283v274h-793v-274h-282v544h139q119 166 119 486v678h946v-1164z" />
    <glyph glyph-name="uni0415" unicode="&#x415;" horiz-adv-x="1085" 
d="M416 270h604v-270h-887v1434h877v-271h-594v-305h542v-266h-542v-322z" />
    <glyph glyph-name="uni0416" unicode="&#x416;" horiz-adv-x="1851" 
d="M1067 0h-283v653l-444 -653h-313l497 731l-477 703h313l424 -639v639h283v-639l424 639h315l-479 -703l500 -731h-316l-444 653v-653z" />
    <glyph glyph-name="uni0417" unicode="&#x417;" horiz-adv-x="1148" 
d="M1098 401q0 -193 -146 -311t-374 -119q-399 0 -535 338l244 137q66 -209 291 -208q117 0 178 49t61 133t-60 133t-173 49h-178v252h135q106 0 166 46q59 46 59 126t-51 126t-152 46q-184 0 -258 -180l-239 139q145 305 497 305q213 0 348 -114t135 -306q0 -190 -153 -301
q205 -109 205 -340z" />
    <glyph glyph-name="uni0418" unicode="&#x418;" horiz-adv-x="1378" 
d="M963 0v874l-615 -874h-215v1434h283v-877l614 877h215v-1434h-282z" />
    <glyph glyph-name="uni0419" unicode="&#x419;" horiz-adv-x="1378" 
d="M963 0v874l-615 -874h-215v1434h283v-877l614 877h215v-1434h-282zM391 1565v229h594v-229h-594z" />
    <glyph glyph-name="uni041A" unicode="&#x41a;" horiz-adv-x="1259" 
d="M416 0h-283v1434h283v-633l491 633h326l-531 -697l551 -737h-325l-512 672v-672z" />
    <glyph glyph-name="uni041B" unicode="&#x41b;" horiz-adv-x="1384" 
d="M276 586v848h975v-1434h-280v1163h-414v-569q0 -186 -45 -313q-112 -316 -489 -281v262q127 -18 190 52t63 272z" />
    <glyph glyph-name="uni041C" unicode="&#x41c;" horiz-adv-x="1669" 
d="M1536 1434v-1434h-281v930l-403 -666h-33l-403 664v-928h-283v1434h291l412 -678l409 678h291z" />
    <glyph glyph-name="uni041D" unicode="&#x41d;" horiz-adv-x="1361" 
d="M948 1434h281v-1434h-281v594h-532v-594h-283v1434h283v-570h532v570z" />
    <glyph glyph-name="uni041E" unicode="&#x41e;" horiz-adv-x="1622" 
d="M811 248q197 0 330 132t133 337t-133 338t-330 133t-330 -133t-133 -338t133 -337t330 -132zM811 -29q-311 0 -527 216t-216 529.5t216 529.5t527 216t528 -216t217 -529.5t-217 -529.5t-528 -216z" />
    <glyph glyph-name="uni041F" unicode="&#x41f;" horiz-adv-x="1337" 
d="M1204 1434v-1434h-282v1163h-506v-1163h-283v1434h1071z" />
    <glyph glyph-name="uni0420" unicode="&#x420;" horiz-adv-x="1208" 
d="M668 735q90 1 149 63t59 155t-58 155q-60 62 -150 61h-252v-434h252zM668 1434q207 0 348 -140t141 -342q0 -203 -141 -342t-348 -139h-252v-471h-283v1434h535z" />
    <glyph glyph-name="uni0421" unicode="&#x421;" horiz-adv-x="1486" 
d="M813 -29q-325 0 -535 215q-210 216 -210 532t210.5 530t534.5 214q195 0 359.5 -91t257.5 -247l-244 -141q-53 96 -151.5 150.5t-221.5 54.5q-209 0 -337 -131t-128 -339t128 -339t337 -131q123 0 222.5 54t150.5 149l244 -142q-92 -156 -256 -247t-361 -91z" />
    <glyph glyph-name="uni0422" unicode="&#x422;" horiz-adv-x="1105" 
d="M1081 1434v-271h-387v-1163h-282v1163h-385v271h1054z" />
    <glyph glyph-name="uni0423" unicode="&#x423;" horiz-adv-x="1228" 
d="M926 1434h282l-430 -1039q-172 -418 -565 -395v264q115 -10 185.5 32t117.5 136l-469 1002h283l313 -693z" />
    <glyph glyph-name="uni0424" unicode="&#x424;" horiz-adv-x="1677" 
d="M328 718q0 -282 372 -323v645q-372 -40 -372 -322zM1350 718q0 282 -373 324v-649q373 43 373 325zM1632 717q0 -246 -178 -400t-477 -182v-166h-277v166q-301 31 -477 183t-176 399t176 399t477 182v166h277v-166q299 -29 477 -182t178 -399z" />
    <glyph glyph-name="uni0425" unicode="&#x425;" horiz-adv-x="1249" 
d="M1225 0h-322l-278 467l-279 -467h-319l438 735l-416 699h320l256 -430l256 430h319l-416 -697z" />
    <glyph glyph-name="uni0426" unicode="&#x426;" horiz-adv-x="1413" 
d="M1204 270h154v-544h-283v274h-942v1434h283v-1164h506v1164h282v-1164z" />
    <glyph glyph-name="uni0427" unicode="&#x427;" horiz-adv-x="1296" 
d="M881 1434h282v-1434h-282v524q-131 -55 -281 -55q-217 0 -357 122t-141 331v512h283v-476q0 -102 60 -160t161 -59q150 0 275 60v635z" />
    <glyph glyph-name="uni0428" unicode="&#x428;" horiz-adv-x="1931" 
d="M1516 1434h282v-1434h-1665v1434h283v-1164h409v1164h281v-1164h410v1164z" />
    <glyph glyph-name="uni0429" unicode="&#x429;" horiz-adv-x="2007" 
d="M1798 270h154v-544h-283v274h-1536v1434h283v-1164h409v1164h281v-1164h410v1164h282v-1164z" />
    <glyph glyph-name="uni042A" unicode="&#x42a;" horiz-adv-x="1419" 
d="M625 264h254q90 0 148 62t58 155t-58 155t-148 62h-254v-434zM344 0v1163h-344v271h625v-471h254q207 1 348 -139t141 -343t-141 -342t-348 -139h-535z" />
    <glyph glyph-name="uni042B" unicode="&#x42b;" horiz-adv-x="1701" 
d="M416 264h252q90 0 149 62t60 155t-59 155t-150 62h-252v-434zM1288 0v1434h281v-1434h-281zM133 0v1434h283v-471h252q207 1 348 -139t141 -343t-141 -342t-348 -139h-535z" />
    <glyph glyph-name="uni042C" unicode="&#x42c;" horiz-adv-x="1208" 
d="M668 264q90 0 149 62t59 154q0 94 -58 156q-60 62 -150 62h-252v-434h252zM668 963q207 1 348 -139t141 -343t-141 -342t-348 -139h-535v1434h283v-471h252z" />
    <glyph glyph-name="uni042D" unicode="&#x42d;" horiz-adv-x="1482" 
d="M672 1462q324 0 534 -214t211 -530q0 -316 -211 -532t-534 -215q-195 0 -359 91t-256 247l244 142q51 -95 151 -149t220 -54q174 0 293 91t155 247h-639v264h639q-37 156 -155 247q-119 91 -293 91q-121 0 -219 -54t-152 -151l-244 141q92 156 257 247t358 91z" />
    <glyph glyph-name="uni042E" unicode="&#x42e;" horiz-adv-x="2160" 
d="M1350 248q198 0 330 132t132 337t-133 338t-331 133t-329 -131q-132 -131 -132 -338t133 -339t330 -132zM1350 1462q311 0 528 -216t217 -528t-217 -530t-512 -217t-499 179t-244 452h-207v-602h-283v1434h283v-562h213q53 258 253 424t468 166z" />
    <glyph glyph-name="uni042F" unicode="&#x42f;" horiz-adv-x="1277" 
d="M571 745h291v424h-291q-80 0 -137 -61q-57 -62 -57 -150t57 -150t137 -63zM1145 1434v-1434h-283v498h-162l-329 -498h-318l350 528q-137 49 -223 168t-86 262q0 197 139 336t338 140h574z" />
    <glyph glyph-name="uni0430" unicode="&#x430;" 
d="M614.5 223q122.5 0 203.5 81t81 208t-81 208t-203.5 81t-202.5 -81t-80 -208t80 -208t202.5 -81zM899 1024h264v-1024h-264v121q-119 -150 -329 -150t-356 157t-146 384t146 384t356 157t329 -150v121z" />
    <glyph glyph-name="uni0431" unicode="&#x431;" horiz-adv-x="1161" 
d="M604 213q110 0 182 68t72 172t-72 173q-72 68 -178 68t-185 -63t-79 -171t74 -178t186 -69zM600 -29q-236 0 -384 156q-148 157 -148 407t77 393q78 142 314 259q265 121 311 172t68 115l217 -125q-27 -125 -120 -194t-252 -130q-159 -60 -218 -112t-86 -124
q115 117 296 117t314 -124q133 -123 133 -331t-142 -344q-144 -135 -380 -135z" />
    <glyph glyph-name="uni0432" unicode="&#x432;" horiz-adv-x="1046" 
d="M629 223q115 0 114 99q-1 44 -31 68t-83 24h-260v-191h260zM594 807h-225v-184h225q113 0 113 92t-113 92zM1001 291q0 -129 -89 -210t-253 -81h-538v1024h497q162 0 251 -80t89 -212t-100 -208q143 -70 143 -233z" />
    <glyph glyph-name="uni0433" unicode="&#x433;" horiz-adv-x="841" 
d="M821 1024v-254h-436v-770h-264v1024h700z" />
    <glyph glyph-name="uni0434" unicode="&#x434;" horiz-adv-x="1224" 
d="M784 248v538h-286v-176q-1 -217 -64 -362h350zM1042 248h136v-522h-258v274h-635v-274h-258v522h125q88 131 88 362v414h802v-776z" />
    <glyph glyph-name="uni0435" unicode="&#x435;" horiz-adv-x="1189" 
d="M600 815q-98 0 -167.5 -54.5t-92.5 -152.5h522q-23 104 -93.5 155.5t-168.5 51.5zM629 -29q-254 0 -407.5 154t-153.5 386t151.5 387t382.5 155t377.5 -156t146.5 -385q0 -51 -10 -109h-772q53 -193 289 -192q152 0 229 102l213 -123q-152 -219 -446 -219z" />
    <glyph glyph-name="uni0436" unicode="&#x436;" horiz-adv-x="1527" 
d="M893 0h-258v459l-313 -459h-295l368 518l-348 506h295l293 -444v444h258v-444l293 444h297l-350 -506l370 -518h-297l-313 459v-459z" />
    <glyph glyph-name="uni0437" unicode="&#x437;" horiz-adv-x="921" 
d="M877 279q0 -131 -109 -219t-305 -89q-311 0 -424 246l215 127q49 -139 211 -139q74 1 114 29t39 77q0 94 -120 95h-146v225h111q119 0 119 94q0 45 -35 72t-92 26q-133 0 -191 -129l-213 123q117 236 400 236q176 0 279 -89q104 -90 104 -228t-113 -214q156 -76 156 -243
z" />
    <glyph glyph-name="uni0438" unicode="&#x438;" horiz-adv-x="1177" 
d="M1057 1024v-1024h-258v582l-482 -582h-196v1024h258v-582l481 582h197z" />
    <glyph glyph-name="uni0439" unicode="&#x439;" horiz-adv-x="1177" 
d="M1057 1024v-1024h-258v582l-482 -582h-196v1024h258v-582l481 582h197zM293 1155v229h594v-229h-594z" />
    <glyph glyph-name="uni043A" unicode="&#x43a;" horiz-adv-x="1075" 
d="M385 0h-264v1024h264v-451l352 451h316l-412 -506l424 -518h-307l-373 465v-465z" />
    <glyph glyph-name="uni043B" unicode="&#x43b;" horiz-adv-x="1118" 
d="M999 1024v-1024h-264v770h-282v-342q0 -475 -433 -428v248q82 -20 125 28t43 166v582h811z" />
    <glyph glyph-name="uni043C" unicode="&#x43c;" horiz-adv-x="1306" 
d="M1186 1024v-1024h-256v598l-260 -410h-33l-262 414v-602h-254v1024h260l272 -430l273 430h260z" />
    <glyph glyph-name="uni043D" unicode="&#x43d;" horiz-adv-x="1177" 
d="M793 1024h264v-1024h-264v389h-408v-389h-264v1024h264v-387h408v387z" />
    <glyph glyph-name="uni043E" unicode="&#x43e;" horiz-adv-x="1216" 
d="M608 229q119 0 199 80t80 203t-80 203t-199 80t-197.5 -80t-78.5 -203t78.5 -203t197.5 -80zM608.5 -29q-227.5 0 -384 157t-156.5 384t156.5 384t384 157t385 -157t157.5 -384t-157.5 -384t-385 -157z" />
    <glyph glyph-name="uni043F" unicode="&#x43f;" horiz-adv-x="1177" 
d="M1057 1024v-1024h-264v776h-408v-776h-264v1024h936z" />
    <glyph glyph-name="uni0440" unicode="&#x440;" 
d="M668 223q124 0 204 81t80 208t-81 208t-203 81t-203 -81q-80 -81 -80 -208t80 -208t203 -81zM713 1053q211 0 357 -157t146 -384t-146 -384t-357 -157t-328 150v-531h-264v1434h264v-121q117 150 328 150z" />
    <glyph glyph-name="uni0441" unicode="&#x441;" horiz-adv-x="1097" 
d="M608 -29q-231 0 -385.5 156t-154.5 385t154.5 385t385.5 156q150 0 273 -72t186 -193l-227 -133q-31 63 -93.5 100.5t-140.5 37.5q-119 0 -196.5 -79t-77.5 -201t77.5 -201t196.5 -79q80 0 142.5 36t93.5 100l229 -131q-68 -121 -190.5 -194t-272.5 -73z" />
    <glyph glyph-name="uni0442" unicode="&#x442;" horiz-adv-x="948" 
d="M928 1024v-254h-320v-770h-264v770h-324v254h908z" />
    <glyph glyph-name="uni0443" unicode="&#x443;" horiz-adv-x="1075" 
d="M788 1024h283l-373 -1024q-156 -432 -540 -410v246q104 -2 164.5 39t97.5 137l-414 1012h281l274 -688z" />
    <glyph glyph-name="uni0444" unicode="&#x444;" horiz-adv-x="1402" 
d="M1075 513q0 103 -62 176t-182 99v-550q119 27 182 99q62 73 62 176zM328 513q0 -103 63 -177t182 -100v552q-119 -28 -182 -100t-63 -175zM1337 512q0 -205 -135 -350t-371 -178v-394h-258v394q-237 33 -371 178t-134 350t135 350t370 178v394h258v-394q236 -33 371 -178
t135 -350z" />
    <glyph glyph-name="uni0445" unicode="&#x445;" horiz-adv-x="1075" 
d="M1065 0h-305l-221 311l-224 -311h-305l375 522l-358 502h305l207 -289l206 289h304l-359 -500z" />
    <glyph glyph-name="uni0446" unicode="&#x446;" horiz-adv-x="1239" 
d="M1022 248h172v-522h-258v274h-815v1024h264v-776h373v776h264v-776z" />
    <glyph glyph-name="uni0447" unicode="&#x447;" horiz-adv-x="1107" 
d="M725 1024h264v-1024h-264v326q-115 -37 -244 -37q-186 0 -298 94t-111 274v367h264v-336q0 -154 190 -153q111 0 199 38v451z" />
    <glyph glyph-name="uni0448" unicode="&#x448;" horiz-adv-x="1705" 
d="M1321 1024h264v-1024h-1464v1024h264v-776h336v776h264v-776h336v776z" />
    <glyph glyph-name="uni0449" unicode="&#x449;" horiz-adv-x="1736" 
d="M1554 248h136v-522h-258v274h-1311v1024h264v-776h320v776h264v-776h321v776h264v-776z" />
    <glyph glyph-name="uni044A" unicode="&#x44a;" horiz-adv-x="1175" 
d="M743 233q55 0 92 32q36 32 35 83q0 51 -35 84q-36 33 -92 33h-200v-232h200zM743 696q173 0 279 -95t106 -253t-105 -253t-280 -95h-464v770h-279v254h543v-328h200z" />
    <glyph glyph-name="uni044B" unicode="&#x44b;" horiz-adv-x="1468" 
d="M586 233q55 0 91 32t36 83t-36 84t-91 33h-201v-232h201zM1083 1024h265v-1024h-265v1024zM584 696q174 0 280.5 -95t106.5 -253t-106.5 -253t-280.5 -95h-463v1024h264v-328h199z" />
    <glyph glyph-name="uni044C" unicode="&#x44c;" horiz-adv-x="1015" 
d="M586 233q55 0 91 32t36 83t-36 84t-91 33h-201v-232h201zM584 696q174 0 280 -95t106 -253t-106 -253t-280 -95h-463v1024h264v-328h199z" />
    <glyph glyph-name="uni044D" unicode="&#x44d;" horiz-adv-x="1099" 
d="M498 1053q233 0 384 -151q150 -150 150 -390t-150 -390t-386 -151q-158 0 -283 73t-186 194l223 129q27 -63 92 -103q66 -39 155 -39t155 46t98 122h-349v238h349q-31 76 -98 122t-152 46q-180 0 -248 -140l-223 129q66 121 189 193q124 72 280 72z" />
    <glyph glyph-name="uni044E" unicode="&#x44e;" horiz-adv-x="1660" 
d="M1053 229q119 0 199 80t79 203q0 123 -80 203q-81 80 -199 80t-197 -80t-79 -203t79 -203t198 -80zM1053 1053q227 0 385 -157t158 -384t-158 -384t-368 -157t-353 117t-185 301h-147v-389h-264v1024h264v-387h150q41 182 184 299q144 117 334 117z" />
    <glyph glyph-name="uni044F" unicode="&#x44f;" horiz-adv-x="1062" 
d="M483 788q-57 0 -95 -34t-38 -89t38 -89t95 -33h201v245h-201zM942 1024v-1024h-258v319h-92l-236 -319h-305l256 350q-98 41 -156 130t-59 192q0 144 102 248t269 104h479z" />
    <glyph glyph-name="uni0451" unicode="&#x451;" horiz-adv-x="1189" 
d="M600 815q-98 0 -167.5 -54.5t-92.5 -152.5h522q-23 104 -93.5 155.5t-168.5 51.5zM629 -29q-254 0 -407.5 154t-153.5 386t151.5 387t382.5 155t377.5 -156t146.5 -385q0 -51 -10 -109h-772q53 -193 289 -192q152 0 229 102l213 -123q-152 -219 -446 -219zM790.5 1133
q-57.5 0 -98.5 39.5t-41 97t41 98.5t98.5 41t97.5 -41t40 -98.5t-40 -97t-97.5 -39.5zM401.5 1133q-57.5 0 -98.5 39.5t-41 97t41 98.5t98.5 41t97.5 -41t40 -98.5t-40 -97t-97.5 -39.5z" />
    <glyph glyph-name="uni0452" unicode="&#x452;" horiz-adv-x="1193" 
d="M702 1053q170 0 280 -113t110 -311v-649q0 -224 -111 -328t-336 -90v254q94 -6 138 32t44 132v616q0 102 -56 156t-153 55q-96 1 -158 -63t-63 -191v-553h-264v1135h-127v172h127v127h264v-127h289v-172h-289v-228q94 146 305 146z" />
    <glyph glyph-name="uni0453" unicode="&#x453;" horiz-adv-x="841" 
d="M821 1024v-254h-436v-770h-264v1024h700zM756 1434l-228 -281h-254l164 281h318z" />
    <glyph glyph-name="uni0454" unicode="&#x454;" horiz-adv-x="1099" 
d="M604 -29q-236 0 -386 151q-150 150 -150 390t150 390t384 151q156 0 280 -72t189 -193l-223 -129q-68 139 -248 140q-86 0 -153 -46t-97 -122h348v-238h-348q32 -76 98 -122t155 -46t155 39q65 40 92 103l223 -129q-61 -121 -186 -194t-283 -73z" />
    <glyph glyph-name="uni0455" unicode="&#x455;" horiz-adv-x="952" 
d="M365 732q0 -40 54 -65.5t132 -45t155.5 -49t132 -99.5t54.5 -174q0 -158 -118 -243t-294 -85q-315 0 -430 244l230 129q45 -133 193 -133t149 88q0 41 -54.5 66.5t-132.5 46t-155.5 51.5t-132 97.5t-54.5 166.5q0 152 112 239q110 87 256 87q286 0 410 -217l-225 -123
q-49 104 -164 104q-51 0 -84.5 -22.5t-33.5 -62.5z" />
    <glyph glyph-name="uni0456" unicode="&#x456;" horiz-adv-x="505" 
d="M121 0v1024h264v-1024h-264zM253 1147q-67 0 -115 48t-48 114q0 67 48 115t115 48t115 -48q48 -50 48 -116t-48 -113q-48 -48 -115 -48z" />
    <glyph glyph-name="uni0457" unicode="&#x457;" horiz-adv-x="505" 
d="M121 0v1024h264v-1024h-264zM446.5 1124q-57.5 0 -98.5 40t-41 97.5t41 98.5t98.5 41t97.5 -41t40 -98.5t-40 -97.5t-97.5 -40zM57.5 1124q-57.5 0 -98.5 40t-41 97.5t41 98.5t98.5 41t97.5 -41t40 -98.5t-40 -97.5t-97.5 -40z" />
    <glyph glyph-name="uni0458" unicode="&#x458;" horiz-adv-x="540" 
d="M156 -20v1044h264v-1044q0 -224 -110 -328t-337 -90v254q94 -6 139 32q44 40 44 132zM125 1309q0 67 48 115t115 48q66 0 114 -48q48 -50 48 -116t-47 -113q-48 -48 -115 -48t-115 48t-48 114z" />
    <glyph glyph-name="uni0459" unicode="&#x459;" horiz-adv-x="1564" 
d="M1169 233q45 0 76 27t31 76t-31 76t-76 26h-190v-205h190zM1167 672q162 0 256 -90q95 -90 95 -246t-96 -246t-255 -90h-452v770h-262v-342q0 -469 -433 -440v248q168 -23 168 206v582h791v-352h188z" />
    <glyph glyph-name="uni045A" unicode="&#x45a;" horiz-adv-x="1617" 
d="M1206 233q45 0 76 27t31 76t-31 76t-76 26h-190v-205h190zM1206 672q162 0 263 -91t101 -245t-102 -245t-262 -91h-454v424h-383v-424h-265v1024h265v-352h383v352h264v-352h190z" />
    <glyph glyph-name="uni045B" unicode="&#x45b;" horiz-adv-x="1193" 
d="M702 1053q170 0 280 -113t110 -311v-629h-265v596q0 102 -56 156t-153 55q-96 1 -158 -63t-63 -191v-553h-264v1135h-127v172h127v127h264v-127h289v-172h-289v-228q94 146 305 146z" />
    <glyph glyph-name="uni045C" unicode="&#x45c;" horiz-adv-x="1075" 
d="M385 0h-264v1024h264v-451l352 451h316l-412 -506l424 -518h-307l-373 465v-465zM868 1434l-227 -281h-254l164 281h317z" />
    <glyph glyph-name="uni045E" unicode="&#x45e;" horiz-adv-x="1075" 
d="M788 1024h283l-373 -1024q-156 -432 -540 -410v246q104 -2 164.5 39t97.5 137l-414 1012h281l274 -688zM836 1384v-229h-594v229h594z" />
    <glyph glyph-name="uni045F" unicode="&#x45f;" horiz-adv-x="1177" 
d="M793 1024h264v-1024h-338v-274h-258v274h-340v1024h264v-776h408v776z" />
    <glyph glyph-name="uni0490" unicode="&#x490;" horiz-adv-x="972" 
d="M666 1679h282v-516h-532v-1163h-283v1434h533v245z" />
    <glyph glyph-name="uni0491" unicode="&#x491;" horiz-adv-x="841" 
d="M563 1231h258v-461h-436v-770h-264v1024h442v207z" />
    <glyph glyph-name="Wgrave" unicode="&#x1e80;" horiz-adv-x="2045" 
d="M432 0l-401 1434h297l274 -1063l299 1063h242l301 -1063l274 1063h297l-401 -1434h-322l-270 946l-268 -946h-322zM1251 1563h-254l-227 280h317z" />
    <glyph glyph-name="wgrave" unicode="&#x1e81;" horiz-adv-x="1576" 
d="M1274 1024h280l-325 -1024h-252l-189 621l-188 -621h-252l-325 1024h280l174 -629l187 629h249l187 -631zM956 1153h-254l-227 281h318z" />
    <glyph glyph-name="Wacute" unicode="&#x1e82;" horiz-adv-x="2045" 
d="M432 0l-401 1434h297l274 -1063l299 1063h242l301 -1063l274 1063h297l-401 -1434h-322l-270 946l-268 -946h-322zM920 1563l163 280h318l-227 -280h-254z" />
    <glyph glyph-name="wacute" unicode="&#x1e83;" horiz-adv-x="1576" 
d="M1274 1024h280l-325 -1024h-252l-189 621l-188 -621h-252l-325 1024h280l174 -629l187 629h249l187 -631zM1106 1434l-227 -281h-254l163 281h318z" />
    <glyph glyph-name="Wdieresis" unicode="&#x1e84;" horiz-adv-x="2045" 
d="M432 0l-401 1434h297l274 -1063l299 1063h242l301 -1063l274 1063h297l-401 -1434h-322l-270 946l-268 -946h-322zM1278 1534q-57 0 -98 40t-41 97.5t41 98t98 40.5t97 -40.5t40 -98t-40 -97.5t-97 -40zM888.5 1534q-57.5 0 -98 40t-40.5 97.5t40.5 98t98 40.5
t97.5 -40.5t40 -98t-40 -97.5t-97.5 -40z" />
    <glyph glyph-name="wdieresis" unicode="&#x1e85;" horiz-adv-x="1576" 
d="M1274 1024h280l-325 -1024h-252l-189 621l-188 -621h-252l-325 1024h280l174 -629l187 629h249l187 -631zM983 1124q-57 0 -98 40t-41 97.5t41 98.5t98 41t97 -41t40 -98.5t-40 -97.5t-97 -40zM594 1124q-57 0 -98 40t-41 97.5t41 98.5t98 41t97 -41t40 -98.5t-40 -97.5
t-97 -40z" />
    <glyph glyph-name="Ygrave" unicode="&#x1ef2;" horiz-adv-x="1271" 
d="M776 0h-280v559l-490 875h320l311 -598l311 598h320l-492 -875v-559zM803 1563h-254l-227 280h317z" />
    <glyph glyph-name="ygrave" unicode="&#x1ef3;" horiz-adv-x="1075" 
d="M788 1024h283l-373 -1024q-80 -221 -212 -320.5t-328 -89.5v246q106 -2 168.5 45t99.5 152l-420 991h289l266 -688zM707 1153h-254l-228 281h318z" />
    <glyph glyph-name="endash" unicode="&#x2013;" horiz-adv-x="1320" 
d="M133 492v253h1055v-253h-1055z" />
    <glyph glyph-name="emdash" unicode="&#x2014;" horiz-adv-x="1525" 
d="M133 492v253h1260v-253h-1260z" />
    <glyph glyph-name="quoteleft" unicode="&#x2018;" horiz-adv-x="569" 
d="M100 864l154 570h215l-82 -570h-287z" />
    <glyph glyph-name="quoteright" unicode="&#x2019;" horiz-adv-x="569" 
d="M469 1436l-154 -570h-215l82 570h287z" />
    <glyph glyph-name="quotesinglbase" unicode="&#x201a;" horiz-adv-x="569" 
d="M469 283l-154 -570h-215l82 570h287z" />
    <glyph glyph-name="quotedblleft" unicode="&#x201c;" horiz-adv-x="948" 
d="M479 864l154 570h215l-82 -570h-287zM100 864l154 570h215l-82 -570h-287z" />
    <glyph glyph-name="quotedblright" unicode="&#x201d;" horiz-adv-x="948" 
d="M848 1436l-154 -570h-215l82 570h287zM469 1436l-154 -570h-215l82 570h287z" />
    <glyph glyph-name="quotedblbase" unicode="&#x201e;" horiz-adv-x="948" 
d="M848 283l-154 -570h-215l82 570h287zM469 283l-154 -570h-215l82 570h287z" />
    <glyph glyph-name="dagger" unicode="&#x2020;" horiz-adv-x="983" 
d="M891 1157v-254h-266v-903h-265v903h-268v254h268v277h265v-277h266z" />
    <glyph glyph-name="daggerdbl" unicode="&#x2021;" horiz-adv-x="983" 
d="M891 903h-266v-373h266v-254h-266v-276h-265v276h-268v254h268v373h-268v254h268v277h265v-277h266v-254z" />
    <glyph glyph-name="bullet" unicode="&#x2022;" horiz-adv-x="737" 
d="M651 719q1 -117 -81 -200t-199 -83t-200 83t-83 200t83 199t200 82t199 -82t81 -199z" />
    <glyph glyph-name="ellipsis" unicode="&#x2026;" horiz-adv-x="1480" 
d="M1206 -27q-72 -1 -123 51t-51 124t51 122q51 52 123 52t123 -52t51 -123q0 -72 -51 -123t-123 -51zM741 -27q-72 -1 -123 51t-51 124t51 122q51 52 123 52t123 -52t51 -123q0 -72 -51 -123t-123 -51zM274 -27q-72 -1 -122 51t-52 124q0 72 52 122q52 52 122 52
q72 0 123 -52t51 -123q0 -72 -50 -123q-52 -51 -124 -51z" />
    <glyph glyph-name="perthousand" unicode="&#x2030;" horiz-adv-x="2332" 
d="M1895 182q56 0 93 39q36 39 36 93t-36 93q-36 37 -92 37t-93 -38q-36 -38 -36 -92q0 -56 36 -94t92 -38zM1130 182q55 0 92 39q36 39 36 93t-36 93q-36 37 -92 37t-91 -38t-35 -92q0 -56 36 -94t90 -38zM1895 651q145 0 245 -98q100 -97 100 -239t-99 -240
q-100 -98 -246 -99q-146 1 -245 99t-100 239q0 141 100 239t245 99zM1130 -25q-147 1 -245 99t-99 239q0 141 98 239t246 99q148 0 246 -98q98 -97 98 -239t-98 -240q-99 -98 -246 -99zM436 993q55 0 92 38t37 93q0 54 -37 92t-92 38t-91 -38q-36 -36 -36 -92t36 -93
q36 -38 91 -38zM238 217l933 1038l125 -69l-936 -1041zM438 786q-146 0 -246 98t-100 240t99 240t247 98t246 -97t98 -241t-98 -240q-98 -98 -246 -98z" />
    <glyph glyph-name="guilsinglleft" unicode="&#x2039;" horiz-adv-x="727" 
d="M598 1018l-225 -385l225 -383h-244l-225 383l225 385h244z" />
    <glyph glyph-name="guilsinglright" unicode="&#x203a;" horiz-adv-x="727" 
d="M373 1018l225 -385l-225 -383h-244l225 383l-225 385h244z" />
    <glyph glyph-name="fraction" unicode="&#x2044;" horiz-adv-x="389" 
d="M-123 0h-184l819 1434h184z" />
    <glyph glyph-name="Euro" unicode="&#x20ac;" horiz-adv-x="1251" 
d="M33 526v160h129v80h-129v158h145q42 250 188 394t371 144q317 0 463 -299l-235 -135q-76 160 -228 160q-215 0 -274 -264h420v-158h-441v-80h441v-160h-424q57 -279 278 -278q156 0 236 170l233 -133q-139 -313 -469 -314q-227 0 -373 150t-188 405h-143z" />
    <glyph glyph-name="uni20BD" unicode="&#x20bd;" horiz-adv-x="1230" 
d="M461 1169v-424h254q86 -1 144 61t59 152q0 90 -58 150t-145 61h-254zM715 498h-254v-113h457v-180h-457v-205h-281v205h-153v180h153v113h-153v247h153v689h535q203 0 343 -140t140 -336t-139 -328t-344 -132z" />
    <glyph glyph-name="uni2116" unicode="&#x2116;" horiz-adv-x="2127" 
d="M1401 426v248h639v-248h-639zM1718 999q53 0 87 35t34 88t-34 88t-87 35t-87 -35t-34 -88t34 -88t87 -35zM963 1434h282v-1434h-215l-614 877v-877h-283v1434h215l615 -875v875zM1718 1460q148 0 246 -98t98 -240t-97 -240t-245 -98t-247 100t-99 239q0 141 98 239
t246 98z" />
    <glyph glyph-name="trademark" unicode="&#x2122;" horiz-adv-x="968" 
d="M903 1434v-410h-119v223l-98 -149h-10l-98 149v-223h-119v410h119l104 -158l102 158h119zM418 1434v-115h-113v-295h-125v295h-112v115h350z" />
    <glyph glyph-name="estimated" unicode="&#x212e;" horiz-adv-x="1617" 
d="M1260 1171q0 23 -15 39q-172 182 -436 182t-436 -182q-14 -16 -15 -39v-393q0 -31 31 -30h840q31 0 31 30v393zM809 1454q334 0 546 -213t212 -524q0 -31 -31 -31h-1147q-31 0 -31 -31v-393q0 -23 15 -39q172 -182 473 -182t477 199q16 18 37 18h76q20 0 26 -12t-8 -27
q-224 -239 -594 -239t-590 211q-219 213 -219 525t212 525t546 213z" />
    <glyph glyph-name="oneeighth" unicode="&#x215b;" horiz-adv-x="1650" 
d="M1294 160q51 0 79 26t28 67q0 42 -29 68q-29 25 -79 25t-79 -24q-28 -24 -28 -68q0 -43 28 -69q29 -25 80 -25zM1294 662q-98 0 -98 -79t98 -79q43 0 71 22t28 58q0 38 -28 58t-71 20zM1608 234q0 -126 -83 -194t-231 -69q-148 0 -231 69q-84 68 -84 194t121 196
q-92 63 -92 174q0 112 81 178t205 66t206 -67q81 -67 81 -177t-92 -174q119 -70 119 -196zM1059 1434h184l-819 -1434h-184zM444 614h-219v598l-168 -47l-51 181l246 88h192v-820z" />
    <glyph glyph-name="threeeighths" unicode="&#x215c;" horiz-adv-x="1816" 
d="M1460 160q51 0 79 26t28 67q0 42 -29 68q-29 25 -79 25t-79 -24q-28 -24 -28 -68q0 -43 28 -69q29 -25 80 -25zM1460 662q-98 0 -98 -79t98 -79q43 0 71 22t28 58q0 38 -28 58t-71 20zM1774 234q0 -126 -83 -194t-231 -69q-148 0 -231 69q-84 68 -84 194t121 196
q-92 63 -92 174q0 112 80 178t206 66q125 0 206 -67t81 -177t-92 -174q119 -70 119 -196zM1225 1434h184l-819 -1434h-184zM657 862q0 -133 -84 -205t-233 -71q-238 0 -320 182l185 106q35 -96 134 -96t99 84q0 37 -28 60q-29 23 -76 22h-39l-82 119l141 172h-297v199h564
v-162l-148 -176q88 -26 136 -86t48 -148z" />
    <glyph glyph-name="fiveeighths" unicode="&#x215d;" horiz-adv-x="1787" 
d="M1432 160q50 0 78 26t28 67q0 42 -29 68q-29 25 -79 25t-78 -24q-29 -24 -29 -68q0 -42 29 -68t80 -26zM1432 662q-98 0 -99 -78q0 -80 99 -80q42 0 70 22t28 58q0 38 -28 58t-70 20zM1745 234q0 -126 -83 -194t-230 -69q-147 0 -232 69q-84 68 -84 194t121 196
q-92 63 -92 174q0 112 81 178t206 66q126 0 206 -67t80 -177t-92 -174q119 -70 119 -196zM1196 1434h184l-819 -1434h-184zM354 1124q133 0 212 -68t79 -199q0 -132 -83 -202t-216 -69q-238 0 -319 182l180 102q37 -96 137 -96t100 84q0 39 -26 64q-27 25 -78 24h-262
l33 488h495v-199h-311l-8 -111h67z" />
    <glyph glyph-name="seveneighths" unicode="&#x215e;" horiz-adv-x="1708" 
d="M1352 160q51 0 79 26q27 26 27 67q0 42 -28 68q-29 25 -79 25t-79 -24t-29 -68q0 -42 29 -68t80 -26zM1352 662q-98 0 -99 -78q0 -80 99 -80q42 0 70 22t28 58q0 38 -28 58t-70 20zM1665 234q0 -126 -83 -194t-230 -69q-147 0 -232 69q-84 68 -84 194t121 196
q-92 63 -92 174q0 112 81 178t206 66t206 -67q80 -67 80 -177t-92 -174q119 -70 119 -196zM1116 1434h184l-819 -1434h-184zM6 1235v199h565v-168l-258 -652h-227l248 621h-328z" />
    <glyph glyph-name="arrowleft" unicode="&#x2190;" horiz-adv-x="1634" 
d="M1542 844v-254h-973l488 -488h-350l-615 615l615 614h350l-488 -487h973z" />
    <glyph glyph-name="arrowup" unicode="&#x2191;" horiz-adv-x="1413" 
d="M840 0h-265v952l-483 -483v350l615 615l614 -615v-350l-481 481v-950z" />
    <glyph glyph-name="arrowright" unicode="&#x2192;" horiz-adv-x="1634" 
d="M92 590v254h973l-487 487h350l614 -614l-614 -615h-350l487 488h-973z" />
    <glyph glyph-name="arrowdown" unicode="&#x2193;" horiz-adv-x="1413" 
d="M575 1434h265v-951l481 482v-351l-614 -614l-615 614v351l483 -484v953z" />
    <glyph glyph-name="arrowboth" unicode="&#x2194;" horiz-adv-x="2222" 
d="M1573 1276l557 -559l-557 -557h-344l426 430h-1092l430 -430h-344l-557 557l557 559h344l-430 -432h1096l-430 432h344z" />
    <glyph glyph-name="arrowupdn" unicode="&#x2195;" horiz-adv-x="1300" 
d="M1208 834l-426 428v-1088l426 426v-344l-557 -559l-559 559v344l426 -424v1084l-426 -426v344l559 559l557 -559v-344z" />
    <glyph glyph-name="uni2196" unicode="&#x2196;" horiz-adv-x="1316" 
d="M92 1255h869l247 -245h-690l707 -707l-178 -180l-707 704v-686l-248 246v868z" />
    <glyph glyph-name="uni2197" unicode="&#x2197;" horiz-adv-x="1316" 
d="M1225 1255v-868l-246 -246v688l-707 -706l-180 180l707 707h-688l245 245h869z" />
    <glyph glyph-name="uni2198" unicode="&#x2198;" horiz-adv-x="1316" 
d="M1225 150h-869l-245 245h688l-707 707l180 180l707 -707v689l246 -246v-868z" />
    <glyph glyph-name="uni2199" unicode="&#x2199;" horiz-adv-x="1316" 
d="M92 150v868l248 246v-686l707 704l178 -180l-707 -707h690l-247 -245h-869z" />
    <glyph glyph-name="partialdiff" unicode="&#x2202;" horiz-adv-x="1196" 
d="M543 221q121 0 195 96t96 265q-104 74 -226 74t-189 -63q-67 -61 -67 -163t52 -156q53 -53 139 -53zM492 1462q250 0 431 -208t181 -550t-162 -538q-162 -195 -410 -195q-208 0 -326 125t-118 325t125 334t338 134q156 0 283 -82q-20 188 -116 296t-259 109
q-117 2 -236 -65v242q115 73 269 73z" />
    <glyph glyph-name="emptyset" unicode="&#x2205;" horiz-adv-x="1646" 
d="M823 156q233 0 396 163q161 165 161 391t-143 386l-692 -867q128 -73 278 -73zM823 1278q-231 0 -394 -162t-163 -390q0 -226 146 -388l690 866q-125 74 -279 74zM1565 715q0 -305 -217 -522t-525 -218q-213 0 -393 113l-102 -129h-219l188 236q-215 219 -215 524
t217 522t524 217q213 0 394 -112l102 129h221l-188 -238q213 -217 213 -522z" />
    <glyph glyph-name="product" unicode="&#x220f;" horiz-adv-x="1310" 
d="M133 -410v1844h1045v-1844h-265v1590h-516v-1590h-264z" />
    <glyph glyph-name="summation" unicode="&#x2211;" horiz-adv-x="1153" 
d="M72 -410v226l436 716l-406 674v228h942v-254h-630l391 -648l-420 -688h690v-254h-1003z" />
    <glyph glyph-name="minus" unicode="&#x2212;" horiz-adv-x="1136" 
d="M109 594v248h921v-248h-921z" />
    <glyph glyph-name="radical" unicode="&#x221a;" horiz-adv-x="1384" 
d="M92 408v254h361l204 -355l447 1331h270l-567 -1638h-256l-250 408h-209z" />
    <glyph glyph-name="infinity" unicode="&#x221e;" horiz-adv-x="1654" 
d="M1165 596q53 0 87 35t34 86t-34 86t-87 35q-88 0 -182 -121q94 -121 182 -121zM489 596q88 0 183 121q-94 121 -183 121q-53 0 -87 -35t-34 -86t34 -86t87 -35zM1170 1075q168 0 273 -99t105 -259t-105 -259q-105 -100 -273 -100t-343 179q-174 -179 -343 -179t-274 100
t-106 259q0 160 106 259t274 99q169 0 343 -178q175 178 343 178z" />
    <glyph glyph-name="integral" unicode="&#x222b;" horiz-adv-x="903" 
d="M0 -418v264q68 -37 136 -6t83 121l195 1149q37 217 168 297t321 31v-262q-69 35 -139 5t-84 -120l-197 -1151q-37 -217 -167 -297t-316 -31z" />
    <glyph glyph-name="approxequal" unicode="&#x2248;" horiz-adv-x="1165" 
d="M307 322l-215 104q45 195 175 256t307 -25t259 -49q32 14 70 54l170 -58q-109 -403 -481 -233q-132 63 -196 55t-89 -104zM332 826q-33 -15 -70 -54l-170 57q109 406 481 234q131 -63 196 -55t89 104l215 -104q-45 -194 -175 -256t-310 24q-180 87 -256 50z" />
    <glyph glyph-name="notequal" unicode="&#x2260;" horiz-adv-x="1075" 
d="M983 805h-324l-79 -176h403v-248h-514l-121 -268h-164l121 268h-213v248h324l80 176h-404v248h514l121 268h164l-121 -268h213v-248z" />
    <glyph glyph-name="lessequal" unicode="&#x2264;" horiz-adv-x="1081" 
d="M92 113v247h897v-247h-897zM989 1337v-274l-592 -184l592 -183v-274l-897 340v233z" />
    <glyph glyph-name="greaterequal" unicode="&#x2265;" horiz-adv-x="1081" 
d="M92 113v247h897v-247h-897zM92 1337l897 -342v-233l-897 -340v274l592 183l-592 184v274z" />
    <glyph glyph-name="lozenge" unicode="&#x25ca;" horiz-adv-x="1136" 
d="M569 348l195 369l-195 368l-196 -368zM469 0l-381 717l381 717h201l381 -717l-381 -717h-201z" />
    <glyph glyph-name="i.loclTRK" horiz-adv-x="505" 
d="M121 0v1024h264v-1024h-264zM250.5 1128q-64.5 0 -111.5 47.5t-47 113t47 111.5t111.5 46t112 -47t47.5 -112t-47.5 -112t-112 -47z" />
    <glyph glyph-name="f_f_j" horiz-adv-x="1708" 
d="M1587 1024v-1044q0 -225 -109 -329q-110 -103 -335 -89v254q92 -6 136 32t44 132v790h-301v-770h-264v770h-303v-770h-265v770h-147v254h147v10q0 217 121 330t361 98v-254q-217 16 -217 -174v-10h303v31q0 428 481 428q111 0 242 -29v-242q-141 16 -246 16t-159 -37
q-54 -38 -54 -136v-31h565z" />
    <glyph glyph-name="f_j" horiz-adv-x="1140" 
d="M1020 1024v-1044q0 -224 -110 -328t-337 -90v254q94 -6 139 32q44 39 44 132v790h-301v-770h-265v770h-147v254h147v10q0 428 482 428q109 0 239 -28v-242q-137 16 -243 16t-160 -38q-53 -38 -53 -136v-10h565z" />
    <glyph glyph-name="uni0414.loclBGR" horiz-adv-x="1495" 
d="M494 270h507l-253 844zM1460 270v-544h-282v274h-861v-274h-280v544h162l374 1164h351l374 -1164h162z" />
    <glyph glyph-name="uni041B.loclBGR" horiz-adv-x="1325" 
d="M487 1434h351l483 -1434h-309l-348 1102l-351 -1102h-307z" />
    <glyph glyph-name="uni0424.loclBGR" horiz-adv-x="1759" 
d="M1411 717q0 201 -100 323t-297 152v-948q197 32 297 152t100 321zM348 717q0 -201 102 -323t298 -150v948q-196 -30 -298 -152t-102 -323zM1694 717q0 -303 -184 -501t-496 -232v-189h-266v189q-311 35 -496 232q-184 198 -184 501t184 501t496 232v188h266v-188
q312 -34 496 -232t184 -501z" />
    <glyph glyph-name="uni0414.ss01" horiz-adv-x="1443" 
d="M952 270v899h-381v-417q0 -312 -98 -482h479zM1235 270h154v-270h-1358v270h139q119 166 119 486v678h946v-1164z" />
    <glyph glyph-name="uni0426.ss01" horiz-adv-x="1413" 
d="M1204 270h154v-270h-1225v1434h283v-1164h506v1164h282v-1164z" />
    <glyph glyph-name="uni0429.ss01" horiz-adv-x="2007" 
d="M1798 270h154v-270h-1819v1434h283v-1164h409v1164h281v-1164h410v1164h282v-1164z" />
    <glyph glyph-name="uni0414.loclBGR.ss01" horiz-adv-x="1495" 
d="M494 270h507l-253 844zM1460 270v-270h-1423v270h162l374 1164h351l374 -1164h162z" />
    <glyph glyph-name="uni0432.loclBGR" horiz-adv-x="1159" 
d="M385 469q-1 -113 59 -177t164 -65t162 55t59 166q0 110 -94 156q-94 47 -254 14l-96 -20v-129zM727 1075q1 63 -37 101t-117 38t-134 -70q-54 -71 -54 -188v-118l96 20q72 14 125 16q121 96 121 201zM1094 438q0 -219 -129 -343t-355 -124q-226 1 -357 137
q-132 136 -132 361v487q0 226 127 366q128 140 322 140t304 -97t111 -247q0 -150 -127 -280q236 -96 236 -400z" />
    <glyph glyph-name="uni0433.loclBGR" horiz-adv-x="952" 
d="M481 -29q-176 0 -294 85t-117 243q0 104 53 174q53 69 129 99t152 50t128 45q54 27 54 67t-33 62t-82 21q-115 0 -168 -106l-223 123q120 218 410 218q146 0 256 -86q110 -87 110 -239q0 -86 -38 -147q-38 -62 -95 -92q-107 -57 -245 -86t-138 -97q0 -94 148 -94t194 137
l229 -131q-115 -246 -430 -246z" />
    <glyph glyph-name="uni0434.loclBGR" 
d="M618.5 248q124.5 0 205.5 79t81 201t-81 200.5t-205.5 78.5t-205.5 -79t-81 -201t81 -200.5t205.5 -78.5zM905 1024h258v-975q0 -238 -156.5 -362.5t-377.5 -124.5q-166 0 -292 63.5t-194 186.5l226 129q78 -143 268 -144q125 0 196.5 65.5t71.5 186.5v111
q-117 -156 -331 -156t-360 152.5t-146 370.5t147 372t361 154t329 -156v127z" />
    <glyph glyph-name="uni0436.loclBGR" horiz-adv-x="1527" 
d="M893 0h-258v457l-313 -457h-295l368 518l-348 506h295l293 -442v852h258v-852l293 442h297l-350 -506l370 -518h-297l-313 457v-457z" />
    <glyph glyph-name="uni0438.loclBGR" horiz-adv-x="1181" 
d="M797 1024h264v-1024h-264v115q-96 -143 -305 -144q-168 0 -278 113t-110 311v629h265v-596q0 -102 55 -156.5t152 -54.5t159 63.5t62 190.5v553z" />
    <glyph glyph-name="uni0439.loclBGR" horiz-adv-x="1181" 
d="M797 1024h264v-1024h-264v115q-96 -143 -305 -144q-168 0 -278 113t-110 311v629h265v-596q0 -102 55 -156.5t152 -54.5t159 63.5t62 190.5v553zM879 1384v-229h-594v229h594z" />
    <glyph glyph-name="uni043A.loclBGR" horiz-adv-x="1075" 
d="M385 0h-264v1434h264v-861l352 451h316l-412 -506l424 -518h-307l-373 465v-465z" />
    <glyph glyph-name="uni043B.loclBGR" horiz-adv-x="1091" 
d="M1085 0h-290l-250 717l-248 -717h-291l389 1024h301z" />
    <glyph glyph-name="uni043F.loclBGR" horiz-adv-x="1181" 
d="M690 1053q168 0 277.5 -113t109.5 -311v-629h-264v596q0 102 -55.5 156.5t-152.5 54.5t-158.5 -63.5t-61.5 -190.5v-553h-264v1024h264v-115q96 144 305 144z" />
    <glyph glyph-name="uni0442.loclBGR" horiz-adv-x="1744" 
d="M1240 1053q190 0 294 -115q106 -115 106 -307v-631h-264v612q0 92 -45 144t-131 51q-86 0 -136 -59t-50 -173v-575h-264v612q0 92 -45 144t-130 51q-85 0 -137 -59t-53 -173v-575h-264v1024h264v-109q93 137 283 137t280 -147q102 148 292 148z" />
    <glyph glyph-name="uni0446.loclBGR" horiz-adv-x="1261" 
d="M1126 248h88v-522h-258v294q-84 35 -127 113q-104 -162 -337 -162q-168 0 -278 114t-110 310v629h265v-594q0 -102 55 -158t152 -55q96 -1 158 63t63 191v553h264v-711q-1 -65 65 -65z" />
    <glyph glyph-name="uni0448.loclBGR" horiz-adv-x="1744" 
d="M1360 1024h264v-1024h-264v109q-92 -137 -282 -137t-281 147q-101 -147 -291 -147t-296 114q-105 115 -106 307v631h265v-612q0 -92 45 -144t131 -51q86 0 136 59t50 173v575h264v-612q0 -92 45 -144t130 -51q85 0 138 59q52 59 52 173v575z" />
    <glyph glyph-name="uni0449.loclBGR" horiz-adv-x="1824" 
d="M1690 248h88v-522h-258v294q-80 31 -121 103q-102 -152 -305 -152t-297 150q-101 -150 -291 -150t-296 115q-105 115 -106 307v631h265v-610q0 -92 45 -144t131 -53q86 0 136 59t50 173v575h264v-610q0 -92 45 -144t130 -53q85 0 138 59q52 59 52 173v575h264v-711
q0 -65 66 -65z" />
    <glyph glyph-name="uni044C.loclBGR" horiz-adv-x="1009" 
d="M362 381q0 -70 46 -115t124 -45t126 45q48 44 48 104t-40 98q-41 38 -117 38h-187v-125zM549 739q201 0 309 -98t107 -270q0 -172 -120 -286q-119 -114 -315 -114t-311 112t-115 298v643h258v-285h187z" />
    <glyph glyph-name="uni044A.loclBGR" horiz-adv-x="1185" 
d="M707 221q77 0 125 45q48 44 48 104t-40 98q-41 38 -115 38h-188v-125q0 -70 47 -115t123 -45zM725 739q201 0 307 -98t106 -270t-119 -286t-315 -114t-311 112t-114 298v395h-279v248h537v-285h188z" />
    <glyph glyph-name="uni044E.loclBGR" horiz-adv-x="1660" 
d="M1053 229q119 0 199 80t79 203q0 123 -80 203q-81 80 -199 80t-197 -80t-79 -203t79 -203t198 -80zM1053 1053q227 0 385 -157t158 -384t-158 -384t-368 -157t-353 117t-185 301h-147v-389h-264v1434h264v-797h150q41 182 184 299q144 117 334 117z" />
    <glyph glyph-name="zero.sinf" horiz-adv-x="837" 
d="M272 82q0 -106 38 -162t109 -57q71 0 109 56q38 57 37 163q0 106 -38 162q-39 56 -109 57q-70 0 -108 -56q-38 -57 -38 -163zM418 -356q-170 0 -271 118q-100 119 -100 320q0 202 100 320q101 118 271 118t271 -119t101 -319t-100 -320q-102 -118 -272 -118z" />
    <glyph glyph-name="one.sinf" horiz-adv-x="542" 
d="M444 492v-820h-219v598l-168 -47l-51 180l246 89h192z" />
    <glyph glyph-name="two.sinf" horiz-adv-x="714" 
d="M49 -328v144l307 305q72 68 72 125q0 33 -22 53q-23 20 -62 20q-84 0 -127 -104l-178 102q86 203 307 203q131 0 217 -73t86 -191t-139 -258l-133 -127h285v-199h-613z" />
    <glyph glyph-name="three.sinf" horiz-adv-x="706" 
d="M657 -80q0 -133 -84 -205t-233 -71q-238 0 -320 182l185 106q35 -96 134 -96t99 84q0 37 -28 60q-29 23 -76 22h-39l-82 119l141 172h-297v199h564v-162l-148 -176q88 -25 136 -85t48 -149z" />
    <glyph glyph-name="four.sinf" horiz-adv-x="731" 
d="M698 4v-201h-84v-131h-208v131h-383v201l264 488h233l-252 -488h138v141h208v-141h84z" />
    <glyph glyph-name="five.sinf" horiz-adv-x="688" 
d="M356 182q133 0 212 -68t79 -199q0 -132 -83 -202t-216 -69q-238 0 -319 182l180 102q37 -96 137 -96t100 84q0 39 -26 64q-27 25 -78 24h-262l33 488h495v-199h-311l-8 -111h67z" />
    <glyph glyph-name="six.sinf" horiz-adv-x="696" 
d="M349 -172q50 0 81 29t31 79t-31 78t-82 27q-51 0 -81 -28q-29 -27 -29 -77t30 -79t81 -29zM664 -68q0 -124 -87 -206t-229 -82t-228 82q-87 82 -87 211q0 82 39 149l256 406h225l-174 -267q129 -8 207 -88q78 -81 78 -205z" />
    <glyph glyph-name="seven.sinf" horiz-adv-x="604" 
d="M6 492h565v-168l-258 -652h-227l248 621h-328v199z" />
    <glyph glyph-name="eight.sinf" horiz-adv-x="714" 
d="M358 -168q51 0 79 26t28 68t-29 67t-79 25q-51 0 -79 -24t-28 -68q0 -42 28 -68t80 -26zM358 334q-98 0 -98 -79t98 -79q43 0 71 22t28 58t-28 58q-28 20 -71 20zM672 -94q0 -126 -83 -194t-231 -68t-231 68q-84 68 -84 195q0 126 121 195q-92 63 -92 174t81 178
q81 66 205 66t206 -66q81 -66 81 -178q0 -111 -92 -174q119 -70 119 -196z" />
    <glyph glyph-name="nine.sinf" horiz-adv-x="696" 
d="M349 336q-51 0 -81 -29t-30 -79t30 -78t80 -27q51 0 82 28q31 27 31 77t-31 79t-81 29zM664 227q0 -82 -39 -149l-254 -406h-228l174 267q-129 8 -207 89q-78 80 -77 204q0 124 87 206t228 82q140 0 228 -82t88 -211z" />
    <glyph glyph-name="zero.tf" horiz-adv-x="1183" 
d="M592 248q143 0 217 120t74 349t-74 350t-217 121t-218 -121t-75 -349t75 -349t218 -121zM591 -29q-269 0 -421 204t-152 542q0 337 152 541t421 204t422 -204t153 -542t-154 -541q-152 -204 -421 -204z" />
    <glyph glyph-name="one.tf" horiz-adv-x="1183" 
d="M756 270h389v-270h-1086v270h414v865l-270 -76l-70 241l377 134h246v-1164z" />
    <glyph glyph-name="two.tf" horiz-adv-x="1183" 
d="M70 0v211l522 473q100 90 152 160t52 148t-56 137q-56 58 -162 59q-170 0 -267 -187l-237 140q76 157 209 239t297 82q219 0 358 -130t139 -328q1 -135 -73 -250t-220 -244l-270 -238h588v-272h-1032z" />
    <glyph glyph-name="three.tf" horiz-adv-x="1183" 
d="M1124 451q0 -225 -149 -353q-150 -127 -365 -127q-427 0 -565 336l242 139q68 -199 293 -198q126 0 194 54t68 148t-68 149q-68 54 -194 54h-58l-112 166l295 350h-615v265h969v-234l-281 -332q158 -42 252 -150t94 -267z" />
    <glyph glyph-name="four.tf" horiz-adv-x="1183" 
d="M1149 506v-262h-154v-244h-284v244h-693v262l476 928h303l-475 -928h389v330h284v-330h154z" />
    <glyph glyph-name="five.tf" horiz-adv-x="1183" 
d="M606 911q226 0 372 -123t146 -345t-150 -347t-362 -125q-425 0 -563 336l242 139q68 -199 301 -198q123 0 186 52q64 52 64 141t-64 143t-186 53h-461l57 797h869v-265h-611l-20 -258h180z" />
    <glyph glyph-name="six.tf" horiz-adv-x="1183" 
d="M586 238q124 0 198 63t74 176t-74 177t-198 65t-198 -63q-73 -64 -73 -178t73 -177t198 -63zM596 983q248 -2 395 -141q147 -140 147 -366t-150 -365t-402 -139t-403 138q-151 140 -150 367q0 190 108 324l455 633h326z" />
    <glyph glyph-name="seven.tf" horiz-adv-x="1183" 
d="M51 1434h1065v-240l-543 -1194h-297l525 1163h-750v271z" />
    <glyph glyph-name="eight.tf" horiz-adv-x="1183" 
d="M592 238q131 0 202 52t70 146q0 94 -70 146q-71 51 -202 51t-202 -51q-71 -52 -71 -146t71 -146t202 -52zM592 1196q-104 0 -164 -45t-59 -123q0 -78 59 -124q60 -46 164 -46t164 46q59 46 59 124t-59 123q-60 45 -164 45zM1145 399q1 -197 -147 -313t-406 -115
q-258 0 -406 116q-147 116 -147 312q0 227 211 346q-162 106 -162 301t142 306q142 110 360 110t362 -110t144 -304t-162 -303q211 -119 211 -346z" />
    <glyph glyph-name="nine.tf" horiz-adv-x="1183" 
d="M326 956q0 -113 72 -176t199 -63q126 0 199 62t72 177q0 115 -72 178q-73 62 -199 62t-199 -63q-72 -64 -72 -177zM1149 956q0 -176 -92 -303l-469 -653h-326l326 451q-250 2 -398 141q-147 139 -147 365q0 225 151 365q152 140 404 140t402 -140t149 -366z" />
    <glyph glyph-name="zero.dnom" horiz-adv-x="837" 
d="M419 190q71 0 109 56t37 164q0 106 -38 162q-39 56 -109 56t-108 -56t-38 -162t38 -163t109 -57zM418 -29q-170 0 -271 119q-100 119 -100 320q0 202 100 320q101 118 271 118t271 -119t101 -319t-100 -320q-102 -119 -272 -119z" />
    <glyph glyph-name="one.dnom" horiz-adv-x="546" 
d="M444 819v-819h-219v598l-168 -47l-51 180l246 88h192z" />
    <glyph glyph-name="two.dnom" horiz-adv-x="729" 
d="M49 0v143l307 306q72 68 72 124q0 33 -22 54q-23 20 -62 20q-84 0 -127 -104l-178 102q86 203 307 203q131 0 217 -73t86 -191t-139 -258l-133 -127h285v-199h-613z" />
    <glyph glyph-name="three.dnom" horiz-adv-x="712" 
d="M657 248q0 -133 -84 -205t-233 -72q-238 0 -320 183l185 106q35 -96 134 -96t99 84q0 38 -28 60t-76 22h-39l-82 119l141 172h-297v198h564v-162l-148 -176q88 -25 136 -85t48 -148z" />
    <glyph glyph-name="four.dnom" horiz-adv-x="731" 
d="M698 332v-201h-84v-131h-208v131h-383v201l264 487h233l-252 -487h138v141h208v-141h84z" />
    <glyph glyph-name="five.dnom" horiz-adv-x="684" 
d="M354 510q133 0 212 -68t79 -200t-83 -201q-83 -70 -216 -70q-238 0 -319 183l180 102q37 -96 137 -96t100 84q0 40 -26 64t-78 24h-262l33 487h495v-198h-311l-8 -111h67z" />
    <glyph glyph-name="six.dnom" horiz-adv-x="696" 
d="M349 156q50 0 81 28t31 79q0 50 -31 78t-82 28t-81 -28q-29 -28 -29 -78t30 -79q31 -28 81 -28zM664 260q0 -125 -87 -207t-229 -82t-228 82q-87 82 -87 211q0 82 39 150l256 405h225l-174 -266q129 -8 207 -88t78 -205z" />
    <glyph glyph-name="seven.dnom" horiz-adv-x="604" 
d="M6 819h565v-168l-258 -651h-227l248 621h-328v198z" />
    <glyph glyph-name="eight.dnom" horiz-adv-x="714" 
d="M358 160q51 0 79 26t28 67q0 42 -29 68q-29 25 -79 25q-51 0 -79 -24t-28 -68q0 -42 28 -68t80 -26zM358 662q-98 0 -98 -79t98 -79q43 0 71 22t28 58q0 38 -28 58t-71 20zM672 234q0 -126 -83 -194t-231 -69q-148 0 -231 69q-84 68 -84 194t121 196q-92 63 -92 174
q0 112 81 178t205 66t206 -67q81 -67 81 -177t-92 -174q119 -70 119 -196z" />
    <glyph glyph-name="nine.dnom" horiz-adv-x="696" 
d="M349 664q-51 0 -81 -29t-30 -79t30 -78t80 -28q51 0 82 28t31 78t-31 79t-81 29zM664 555q0 -82 -39 -149l-254 -406h-228l174 266q-129 8 -207 89t-77 205q0 124 87 206t228 82q140 0 228 -82t88 -211z" />
    <glyph glyph-name="zero.numr" horiz-adv-x="837" 
d="M272 1024q0 -106 38 -162t109 -57q71 0 109 56q38 57 37 163q0 106 -38 162q-39 56 -109 57q-70 0 -108 -56q-38 -57 -38 -163zM418 586q-170 0 -271 119q-100 119 -100 319t100 320q101 118 271 118t271 -119t101 -319t-100 -320q-102 -118 -272 -118z" />
    <glyph glyph-name="one.numr" horiz-adv-x="546" 
d="M444 1434v-820h-219v598l-168 -47l-51 181l246 88h192z" />
    <glyph glyph-name="two.numr" horiz-adv-x="729" 
d="M49 614v144l307 305q72 68 72 125q0 33 -22 53q-23 20 -62 21q-84 0 -127 -105l-178 103q86 203 307 202q131 0 217 -72t86 -192q0 -119 -139 -258l-133 -127h285v-199h-613z" />
    <glyph glyph-name="three.numr" horiz-adv-x="712" 
d="M657 862q0 -133 -84 -205t-233 -71q-238 0 -320 182l185 106q35 -96 134 -96t99 84q0 37 -28 60q-29 23 -76 22h-39l-82 119l141 172h-297v199h564v-162l-148 -176q88 -25 136 -85t48 -149z" />
    <glyph glyph-name="four.numr" horiz-adv-x="731" 
d="M698 946v-201h-84v-131h-208v131h-383v201l264 488h233l-252 -488h138v141h208v-141h84z" />
    <glyph glyph-name="five.numr" horiz-adv-x="684" 
d="M354 1124q133 0 212 -68t79 -199q0 -132 -83 -202t-216 -69q-238 0 -319 182l180 102q37 -96 137 -96t100 84q0 39 -26 64q-27 25 -78 24h-262l33 488h495v-199h-311l-8 -111h67z" />
    <glyph glyph-name="six.numr" horiz-adv-x="696" 
d="M349 770q50 0 81 29t31 79t-31 78t-82 27q-51 0 -81 -28q-29 -27 -29 -77t30 -79t81 -29zM664 874q0 -124 -87 -206t-229 -82t-228 82q-87 82 -87 211q0 82 39 149l256 406h225l-174 -267q129 -8 207 -88q78 -81 78 -205z" />
    <glyph glyph-name="seven.numr" horiz-adv-x="604" 
d="M6 1434h565v-168l-258 -652h-227l248 621h-328v199z" />
    <glyph glyph-name="eight.numr" horiz-adv-x="714" 
d="M358 774q51 0 79 26t28 68t-29 67q-29 26 -79 26q-51 0 -79 -25t-28 -68q0 -42 28 -68t80 -26zM358 1276q-98 0 -98 -79t98 -79q43 0 71 22t28 58t-28 58q-28 20 -71 20zM672 848q0 -126 -83 -194t-231 -68t-231 68q-84 68 -84 195q0 126 121 195q-92 62 -92 174t81 178
t205 66t206 -66q81 -66 81 -178q0 -111 -92 -174q119 -70 119 -196z" />
    <glyph glyph-name="nine.numr" horiz-adv-x="696" 
d="M349 1278q-51 0 -81 -29t-30 -79t30 -78t80 -27q51 0 82 28q31 27 31 77t-31 79t-81 29zM664 1169q0 -82 -39 -149l-254 -406h-228l174 267q-129 8 -207 89q-78 80 -77 204q0 124 87 206t228 82q140 0 228 -82t88 -211z" />
    <glyph glyph-name="zero.sups" horiz-adv-x="837" 
d="M272 1352q0 -106 38 -162t109 -57q71 0 109 56q38 57 37 163q0 106 -38 162q-39 56 -109 56t-108 -56t-38 -162zM418 913q-170 0 -271 119q-100 119 -100 320q0 202 100 320q101 118 271 118t271 -119t101 -319t-100 -320q-102 -119 -272 -119z" />
    <glyph glyph-name="one.sups" horiz-adv-x="546" 
d="M444 1761v-819h-219v598l-168 -47l-51 180l246 88h192z" />
    <glyph glyph-name="two.sups" horiz-adv-x="729" 
d="M49 942v143l307 306q72 68 72 125q0 33 -22 53q-23 20 -62 20q-84 0 -127 -104l-178 102q86 203 307 203q131 0 217 -73t86 -191t-139 -258l-133 -127h285v-199h-613z" />
    <glyph glyph-name="three.sups" horiz-adv-x="712" 
d="M657 1190q0 -133 -84 -205t-233 -72q-238 0 -320 183l185 106q35 -96 134 -96t99 84q0 38 -28 60t-76 22h-39l-82 119l141 172h-297v198h564v-162l-148 -176q88 -25 136 -85t48 -148z" />
    <glyph glyph-name="four.sups" horiz-adv-x="731" 
d="M698 1274v-201h-84v-131h-208v131h-383v201l264 487h233l-252 -487h138v141h208v-141h84z" />
    <glyph glyph-name="five.sups" horiz-adv-x="684" 
d="M354 1452q133 0 212 -68t79 -200t-83 -201q-83 -70 -216 -70q-238 0 -319 183l180 102q37 -96 137 -96t100 84q0 40 -26 64t-78 24h-262l33 487h495v-198h-311l-8 -111h67z" />
    <glyph glyph-name="six.sups" horiz-adv-x="696" 
d="M349 1098q50 0 81 28t31 79q0 50 -31 78t-82 28t-81 -28q-29 -28 -29 -78t30 -79q31 -28 81 -28zM664 1202q0 -125 -87 -207t-229 -82t-228 82q-87 82 -87 211q0 82 39 150l256 405h225l-174 -266q129 -8 207 -88t78 -205z" />
    <glyph glyph-name="seven.sups" horiz-adv-x="604" 
d="M6 1761h565v-168l-258 -651h-227l248 621h-328v198z" />
    <glyph glyph-name="eight.sups" horiz-adv-x="714" 
d="M358 1102q51 0 79 26t28 67q0 42 -29 68q-29 25 -79 25q-51 0 -79 -24t-28 -68q0 -42 28 -68t80 -26zM358 1604q-98 0 -98 -79t98 -79q43 0 71 22t28 58q0 38 -28 58t-71 20zM672 1176q0 -126 -83 -194t-231 -69q-148 0 -231 69q-84 68 -84 194t121 196q-92 63 -92 174
q0 112 81 178t205 66t206 -67q81 -67 81 -177t-92 -174q119 -70 119 -196z" />
    <glyph glyph-name="nine.sups" horiz-adv-x="696" 
d="M349 1606q-51 0 -81 -29t-30 -79t30 -78t80 -28q51 0 82 28t31 78t-31 79t-81 29zM664 1497q0 -82 -39 -149l-254 -406h-228l174 266q-129 8 -207 89t-77 205q0 124 87 206t228 82q140 0 228 -82t88 -211z" />
    <glyph glyph-name="cent.tf" horiz-adv-x="1183" 
d="M373 717q0 -160 125 -238l168 518h-19q-119 -1 -197 -79t-77 -201zM649 176q-70 0 -125 14l-61 -190h-119l72 225q-140 63 -224 195t-83 297q0 229 154 385q155 156 386 155q55 0 99 -8l59 185h119l-70 -217q170 -68 252 -224l-227 -133q-35 72 -107 107l-168 -527
q12 -2 41 -2q80 0 143 36q62 36 93 99l229 -131q-68 -122 -190 -194t-273 -72z" />
    <glyph glyph-name="dollar.tf" horiz-adv-x="1183" 
d="M850 387q0 53 -35 87t-121 73v-303q156 23 156 143zM395 1053q0 -51 36 -88t126 -76v303q-162 -14 -162 -139zM1133 399q0 -179 -119 -291t-320 -133v-180h-137v178q-188 13 -318 103t-188 241l244 142q74 -190 262 -215v356q-4 0 -57 20q-281 103 -350 256
q-35 75 -35 175q0 184 126 290t316 119v178h137v-182q293 -39 408 -301l-238 -139q-51 135 -170 166v-346q66 -25 97 -36t101 -43t123 -80q54 -48 71 -84q47 -100 47 -194z" />
    <glyph glyph-name="Euro.tf" horiz-adv-x="1183" 
d="M705 -29q-215 1 -353 149t-174 406h-135v160h123v80h-123v158h139q39 250 174 394t349 144q147 0 261 -81t171 -220l-236 -135q-27 74 -79 118t-117 44q-188 0 -240 -264h356v-158h-372v-80h372v-160h-358q47 -279 242 -278q71 0 125 48t83 128l232 -133
q-57 -147 -173 -233t-267 -87z" />
    <glyph glyph-name="florin.tf" horiz-adv-x="1183" 
d="M1071 848v-254h-319l-185 -678q-59 -217 -196 -296t-324 -32v262q205 -68 254 115l172 629h-244v254h312l73 268q60 215 198 295t325 33v-264q-94 35 -163 5t-93 -120l-60 -217h250z" />
    <glyph glyph-name="uni20BD.tf" horiz-adv-x="1183" 
d="M457 1169v-424h196q87 -1 145 61t58 152t-58 150t-145 61h-196zM653 498h-196v-113h399v-180h-399v-205h-283v205h-154v180h154v113h-154v247h154v689h479q203 0 343 -140t140 -336t-138 -328q-140 -132 -345 -132z" />
    <glyph glyph-name="sterling.tf" horiz-adv-x="1183" 
d="M494 272h669v-272h-1102v272h150v289h-123v248h123v205q0 217 134 333q133 115 303 115t286 -79t172 -220l-242 -139q-53 164 -194 164q-76 0 -126 -47t-50 -137v-195h430v-248h-430v-289z" />
    <glyph glyph-name="yen.tf" horiz-adv-x="1183" 
d="M1063 741v-163h-330v-93h330v-166h-330v-319h-282v319h-330v166h330v93h-330v163h274l-391 693h320l268 -516l268 516h320l-392 -693h275z" />
    <glyph glyph-name="brevecy" horiz-adv-x="737" 
d="M72 1155v229h594v-229h-594z" />
    </font>
</defs>
</svg>
